<svg width="28" height="28" viewBox="0 0 28 28" fill="none" xmlns="http://www.w3.org/2000/svg">
<path d="M19.8333 6.5C20.7538 6.5 21.5 7.23597 21.5 8.14383L21.5 10.9499C21.5 11.8578 20.7538 12.5938 19.8333 12.5938H17.3333C16.4129 12.5938 15.6667 11.8578 15.6667 10.9499L15.6667 8.14383C15.6667 7.23597 16.4129 6.5 17.3333 6.5L19.8333 6.5Z" stroke="#B2B2B2" stroke-linecap="round" stroke-linejoin="round"/>
<path d="M8.16667 6.5C7.24619 6.5 6.5 7.23597 6.5 8.14383L6.50001 10.9499C6.50001 11.8578 7.2462 12.5938 8.16667 12.5938H10.6667C11.5871 12.5938 12.3333 11.8578 12.3333 10.9499L12.3333 8.14383C12.3333 7.23597 11.5871 6.5 10.6667 6.5L8.16667 6.5Z" stroke="#B2B2B2" stroke-linecap="round" stroke-linejoin="round"/>
<path d="M19.8333 15.4063C20.7538 15.4063 21.5 16.1422 21.5 17.0501V19.8562C21.5 20.764 20.7538 21.5 19.8333 21.5H17.3333C16.4129 21.5 15.6667 20.764 15.6667 19.8562L15.6667 17.0501C15.6667 16.1422 16.4129 15.4063 17.3333 15.4063H19.8333Z" stroke="#B2B2B2" stroke-linecap="round" stroke-linejoin="round"/>
<path d="M8.16667 15.4063C7.2462 15.4063 6.50001 16.1422 6.50001 17.0501L6.50001 19.8562C6.50001 20.764 7.2462 21.5 8.16668 21.5H10.6667C11.5871 21.5 12.3333 20.764 12.3333 19.8562L12.3333 17.0501C12.3333 16.1422 11.5871 15.4063 10.6667 15.4063H8.16667Z" stroke="#B2B2B2" stroke-linecap="round" stroke-linejoin="round"/>
</svg>
