<svg width="24" height="24" viewBox="0 0 24 24" fill="none" xmlns="http://www.w3.org/2000/svg">
<path d="M2.45777 5.12033L3.01465 5.40407L2.45777 5.12033ZM3.07548 21.3516L2.63354 20.9097L2.63353 20.9097L3.07548 21.3516ZM20.7068 17.7693L20.9905 18.3262H20.9905L20.7068 17.7693ZM22.5422 15.9338L21.9853 15.6501V15.6501L22.5422 15.9338ZM22.5422 5.12033L21.9853 5.40407V5.40407L22.5422 5.12033ZM20.7068 3.28486L20.9905 2.72798V2.72798L20.7068 3.28486ZM4.29324 3.28486L4.57698 3.84174L4.29324 3.28486ZM6.2 18.2271L5.75806 17.7852L6.2 18.2271ZM2.625 9.54709C2.625 8.36066 2.62549 7.50844 2.68015 6.83943C2.73421 6.17772 2.83814 5.75049 3.01465 5.40407L1.90089 4.83658C1.61963 5.38859 1.49468 5.99863 1.4343 6.73764C1.37451 7.46935 1.375 8.38129 1.375 9.54709H2.625ZM2.625 11.2271V9.54709H1.375V11.2271H2.625ZM1.375 11.2271V18.2271H2.625V11.2271H1.375ZM1.375 18.2271V18.2271H2.625V18.2271H1.375ZM1.375 18.2271V20.9061H2.625V18.2271H1.375ZM1.375 20.9061C1.375 22.0242 2.72681 22.5842 3.51742 21.7936L2.63353 20.9097C2.62887 20.9143 2.62704 20.9149 2.62851 20.9141C2.62983 20.9135 2.63165 20.9128 2.63332 20.9125C2.63599 20.9121 2.63367 20.9131 2.62809 20.9108C2.6225 20.9084 2.62156 20.9061 2.62312 20.9083C2.6241 20.9097 2.62495 20.9114 2.6254 20.9128C2.6259 20.9144 2.625 20.9127 2.625 20.9061H1.375ZM3.51742 21.7936L6.64194 18.669L5.75806 17.7852L2.63354 20.9097L3.51742 21.7936ZM16.28 17.6021H6.20001V18.8521H16.28V17.6021ZM20.423 17.2124C20.0766 17.3889 19.6494 17.4929 18.9877 17.5469C18.3187 17.6016 17.4664 17.6021 16.28 17.6021V18.8521C17.4458 18.8521 18.3577 18.8526 19.0894 18.7928C19.8285 18.7324 20.4385 18.6075 20.9905 18.3262L20.423 17.2124ZM21.9853 15.6501C21.6426 16.3228 21.0957 16.8697 20.423 17.2124L20.9905 18.3262C21.8984 17.8636 22.6365 17.1255 23.0991 16.2176L21.9853 15.6501ZM22.375 11.5071C22.375 12.6935 22.3745 13.5457 22.3199 14.2147C22.2658 14.8765 22.1619 15.3037 21.9853 15.6501L23.0991 16.2176C23.3804 15.6656 23.5053 15.0555 23.5657 14.3165C23.6255 13.5848 23.625 12.6729 23.625 11.5071H22.375ZM22.375 9.54709V11.5071H23.625V9.54709H22.375ZM21.9853 5.40407C22.1619 5.75049 22.2658 6.17772 22.3199 6.83943C22.3745 7.50843 22.375 8.36066 22.375 9.54709H23.625C23.625 8.38129 23.6255 7.46935 23.5657 6.73764C23.5053 5.99863 23.3804 5.38859 23.0991 4.83658L21.9853 5.40407ZM20.423 3.84174C21.0957 4.18449 21.6426 4.73139 21.9853 5.40407L23.0991 4.83658C22.6365 3.9287 21.8984 3.19057 20.9905 2.72798L20.423 3.84174ZM16.28 3.45209C17.4664 3.45209 18.3187 3.45257 18.9877 3.50723C19.6494 3.5613 20.0766 3.66523 20.423 3.84174L20.9905 2.72798C20.4385 2.44672 19.8285 2.32176 19.0894 2.26138C18.3577 2.2016 17.4458 2.20209 16.28 2.20209V3.45209ZM8.72 3.45209H16.28V2.20209H8.72V3.45209ZM4.57698 3.84174C4.92341 3.66523 5.35063 3.5613 6.01234 3.50723C6.68135 3.45257 7.53358 3.45209 8.72 3.45209V2.20209C7.5542 2.20209 6.64227 2.2016 5.91055 2.26138C5.17154 2.32176 4.5615 2.44672 4.0095 2.72798L4.57698 3.84174ZM3.01465 5.40407C3.3574 4.73139 3.9043 4.18449 4.57698 3.84174L4.0095 2.72798C3.10161 3.19057 2.36348 3.9287 1.90089 4.83658L3.01465 5.40407ZM6.825 18.2271C6.825 18.5429 6.57384 18.8521 6.20001 18.8521V17.6021C5.82617 17.6021 5.575 17.9113 5.575 18.2271H6.825ZM6.64194 18.669C6.75501 18.556 6.825 18.3986 6.825 18.2271H5.575C5.575 18.0556 5.64499 17.8982 5.75806 17.7852L6.64194 18.669Z" fill="#757575"/>
<path d="M7.1001 8.42712L16.9001 8.42712" stroke="#757575" stroke-width="1.25" stroke-linecap="round" stroke-linejoin="round"/>
<path d="M7.1001 12.6271L14.1001 12.6271" stroke="#757575" stroke-width="1.25" stroke-linecap="round" stroke-linejoin="round"/>
</svg>
