<svg width="30" height="30" viewBox="0 0 30 30" fill="none" xmlns="http://www.w3.org/2000/svg">
<path d="M10.5 9C10.3011 9 10.1103 9.07902 9.96967 9.21967C9.82902 9.36032 9.75 9.55109 9.75 9.75C9.75 9.94891 9.82902 10.1397 9.96967 10.2803C10.1103 10.421 10.3011 10.5 10.5 10.5H19.5C19.6989 10.5 19.8897 10.421 20.0303 10.2803C20.171 10.1397 20.25 9.94891 20.25 9.75C20.25 9.55109 20.171 9.36032 20.0303 9.21967C19.8897 9.07902 19.6989 9 19.5 9H10.5ZM9.75 12.75C9.75 12.5511 9.82902 12.3603 9.96967 12.2197C10.1103 12.079 10.3011 12 10.5 12H19.5C19.6989 12 19.8897 12.079 20.0303 12.2197C20.171 12.3603 20.25 12.5511 20.25 12.75C20.25 12.9489 20.171 13.1397 20.0303 13.2803C19.8897 13.421 19.6989 13.5 19.5 13.5H10.5C10.3011 13.5 10.1103 13.421 9.96967 13.2803C9.82902 13.1397 9.75 12.9489 9.75 12.75ZM10.5 15C10.3011 15 10.1103 15.079 9.96967 15.2197C9.82902 15.3603 9.75 15.5511 9.75 15.75C9.75 15.9489 9.82902 16.1397 9.96967 16.2803C10.1103 16.421 10.3011 16.5 10.5 16.5H19.5C19.6989 16.5 19.8897 16.421 20.0303 16.2803C20.171 16.1397 20.25 15.9489 20.25 15.75C20.25 15.5511 20.171 15.3603 20.0303 15.2197C19.8897 15.079 19.6989 15 19.5 15H10.5ZM10.5 18C10.3011 18 10.1103 18.079 9.96967 18.2197C9.82902 18.3603 9.75 18.5511 9.75 18.75C9.75 18.9489 9.82902 19.1397 9.96967 19.2803C10.1103 19.421 10.3011 19.5 10.5 19.5H15C15.1989 19.5 15.3897 19.421 15.5303 19.2803C15.671 19.1397 15.75 18.9489 15.75 18.75C15.75 18.5511 15.671 18.3603 15.5303 18.2197C15.3897 18.079 15.1989 18 15 18H10.5Z" fill="#185ABD"/>
<path d="M6 6C6 5.20435 6.31607 4.44129 6.87868 3.87868C7.44129 3.31607 8.20435 3 9 3H21C21.7956 3 22.5587 3.31607 23.1213 3.87868C23.6839 4.44129 24 5.20435 24 6V24C24 24.7956 23.6839 25.5587 23.1213 26.1213C22.5587 26.6839 21.7956 27 21 27H9C8.20435 27 7.44129 26.6839 6.87868 26.1213C6.31607 25.5587 6 24.7956 6 24V6ZM21 4.5H9C8.60218 4.5 8.22064 4.65804 7.93934 4.93934C7.65804 5.22064 7.5 5.60218 7.5 6V24C7.5 24.3978 7.65804 24.7794 7.93934 25.0607C8.22064 25.342 8.60218 25.5 9 25.5H21C21.3978 25.5 21.7794 25.342 22.0607 25.0607C22.342 24.7794 22.5 24.3978 22.5 24V6C22.5 5.60218 22.342 5.22064 22.0607 4.93934C21.7794 4.65804 21.3978 4.5 21 4.5Z" fill="#185ABD"/>
</svg>
