<svg width="24" height="24" viewBox="0 0 24 24" fill="none" xmlns="http://www.w3.org/2000/svg">
<path d="M18 16.9749C20.2459 16.7194 22 14.5489 22 11.9091C22 8.84619 19.5433 6.4373 16.9166 6.8704C16.9143 6.87079 16.9119 6.86952 16.9109 6.86732C15.9074 4.57412 13.8364 3 11.4444 3C8.25806 3 5.64126 5.79337 5.35862 9.35887C5.35841 9.3616 5.35609 9.36373 5.35335 9.36372C3.52948 9.35918 2 11.0859 2 13.1818C2 15.2905 3.49238 17 5.33333 17H6" stroke="#334998" stroke-width="1.25" stroke-linecap="round"/>
<path d="M8.625 17.3468L11.6227 14.1993C11.7259 14.0908 11.899 14.0908 12.0023 14.1993L14.9999 17.3468" stroke="#334998" stroke-width="1.25" stroke-linecap="round"/>
<path d="M11.968 15.3713L11.968 21.3713" stroke="#334998" stroke-width="1.25" stroke-linecap="round"/>
</svg>
