<svg width="118" height="98" viewBox="0 0 118 98" fill="none" xmlns="http://www.w3.org/2000/svg">
<g filter="url(#filter0_ddd_191_12220)">
<g filter="url(#filter1_ddd_191_12220)">
<path d="M72.0232 13.624L80.3716 27.3333H28.8438C26.0824 27.3333 23.8438 25.0947 23.8438 22.3333V16.2246C23.8438 13.4632 26.0824 11.2246 28.8438 11.2246H67.7527C69.4974 11.2246 71.1158 12.134 72.0232 13.624Z" fill="url(#paint0_linear_191_12220)"/>
<path d="M28.8438 27.0833H79.9266L71.8097 13.7541C70.9477 12.3385 69.4101 11.4746 67.7527 11.4746H28.8438C26.2205 11.4746 24.0938 13.6013 24.0938 16.2246V22.3333C24.0938 24.9566 26.2205 27.0833 28.8438 27.0833Z" stroke="url(#paint1_linear_191_12220)" stroke-width="0.5"/>
</g>
<g filter="url(#filter2_ddd_191_12220)">
<path d="M107 25.3333V78.2246C107 80.986 104.761 83.2246 102 83.2246H9C6.23857 83.2246 4 80.986 4 78.2246V9.22461C4 6.46319 6.23857 4.22461 8.99999 4.22461H47.9089C49.6535 4.22461 51.272 5.13397 52.1794 6.62405L59.0666 17.9338C59.974 19.4239 61.5924 20.3333 63.3371 20.3333H102C104.761 20.3333 107 22.5718 107 25.3333Z" fill="url(#paint2_linear_191_12220)"/>
<path d="M106.5 78.2246V25.3333C106.5 22.848 104.485 20.8333 102 20.8333H63.3371C61.418 20.8333 59.6377 19.833 58.6395 18.1939L51.7523 6.88411C50.9357 5.54303 49.479 4.72461 47.9089 4.72461H8.99999C6.51472 4.72461 4.5 6.73933 4.5 9.22461V78.2246C4.5 80.7099 6.51472 82.7246 9 82.7246H102C104.485 82.7246 106.5 80.7099 106.5 78.2246Z" stroke="url(#paint3_linear_191_12220)"/>
</g>
<g filter="url(#filter3_i_191_12220)">
<path d="M9.91 50.2246V40.8646H13.693C13.784 40.8646 13.8967 40.8689 14.031 40.8776C14.1653 40.8819 14.2932 40.8949 14.4145 40.9166C14.9345 40.9989 15.3678 41.1766 15.7145 41.4496C16.0655 41.7226 16.3277 42.0671 16.501 42.4831C16.6743 42.8991 16.761 43.3584 16.761 43.8611C16.761 44.3681 16.6743 44.8296 16.501 45.2456C16.3277 45.6616 16.0655 46.0061 15.7145 46.2791C15.3678 46.5521 14.9345 46.7298 14.4145 46.8121C14.2932 46.8294 14.1632 46.8424 14.0245 46.8511C13.8902 46.8598 13.7797 46.8641 13.693 46.8641H11.2685V50.2246H9.91ZM11.2685 45.5771H13.641C13.7277 45.5771 13.823 45.5728 13.927 45.5641C14.0353 45.5554 14.1372 45.5403 14.2325 45.5186C14.5098 45.4536 14.733 45.3344 14.902 45.1611C15.071 44.9834 15.1923 44.7798 15.266 44.5501C15.3397 44.3204 15.3765 44.0908 15.3765 43.8611C15.3765 43.6314 15.3397 43.4039 15.266 43.1786C15.1923 42.9489 15.071 42.7474 14.902 42.5741C14.733 42.3964 14.5098 42.2751 14.2325 42.2101C14.1372 42.1841 14.0353 42.1668 13.927 42.1581C13.823 42.1494 13.7277 42.1451 13.641 42.1451H11.2685V45.5771ZM17.8004 50.2246V43.2046H19.0094V44.9076L18.8404 44.6866C18.9271 44.4613 19.0397 44.2554 19.1784 44.0691C19.3171 43.8784 19.4774 43.7224 19.6594 43.6011C19.8371 43.4711 20.0342 43.3714 20.2509 43.3021C20.4719 43.2284 20.6972 43.1851 20.9269 43.1721C21.1566 43.1548 21.3776 43.1656 21.5899 43.2046V44.4786C21.3602 44.4179 21.1046 44.4006 20.8229 44.4266C20.5456 44.4526 20.2899 44.5414 20.0559 44.6931C19.8349 44.8361 19.6594 45.0094 19.5294 45.2131C19.4037 45.4168 19.3127 45.6443 19.2564 45.8956C19.2001 46.1426 19.1719 46.4048 19.1719 46.6821V50.2246H17.8004ZM25.4893 50.4196C24.7873 50.4196 24.1784 50.2614 23.6628 49.9451C23.1471 49.6288 22.7484 49.1933 22.4668 48.6386C22.1894 48.0796 22.0508 47.4361 22.0508 46.7081C22.0508 45.9758 22.1938 45.3323 22.4798 44.7776C22.7658 44.2186 23.1666 43.7853 23.6823 43.4776C24.1979 43.1656 24.8003 43.0096 25.4893 43.0096C26.1913 43.0096 26.8001 43.1678 27.3158 43.4841C27.8314 43.8004 28.2301 44.2359 28.5118 44.7906C28.7934 45.3453 28.9343 45.9844 28.9343 46.7081C28.9343 47.4404 28.7913 48.0861 28.5053 48.6451C28.2236 49.1998 27.8249 49.6353 27.3093 49.9516C26.7936 50.2636 26.1869 50.4196 25.4893 50.4196ZM25.4893 49.1391C26.1609 49.1391 26.6614 48.9138 26.9908 48.4631C27.3244 48.0081 27.4913 47.4231 27.4913 46.7081C27.4913 45.9758 27.3223 45.3908 26.9843 44.9531C26.6506 44.5111 26.1523 44.2901 25.4893 44.2901C25.0343 44.2901 24.6594 44.3941 24.3648 44.6021C24.0701 44.8058 23.8513 45.0896 23.7083 45.4536C23.5653 45.8133 23.4938 46.2314 23.4938 46.7081C23.4938 47.4448 23.6628 48.0341 24.0008 48.4761C24.3388 48.9181 24.8349 49.1391 25.4893 49.1391ZM30.7462 50.2246V42.9576C30.7462 42.7799 30.7527 42.5914 30.7657 42.3921C30.7787 42.1884 30.8155 41.9891 30.8762 41.7941C30.9412 41.5948 31.0473 41.4128 31.1947 41.2481C31.3723 41.0531 31.5673 40.9144 31.7797 40.8321C31.992 40.7498 32.2022 40.7021 32.4102 40.6891C32.6225 40.6761 32.8175 40.6696 32.9952 40.6696H33.8792V41.7876H33.0602C32.7395 41.7876 32.499 41.8678 32.3387 42.0281C32.1827 42.1841 32.1047 42.4073 32.1047 42.6976V50.2246H30.7462ZM29.5827 44.2966V43.2046H33.8792V44.2966H29.5827ZM37.5138 50.4196C36.8161 50.4196 36.2029 50.2679 35.6743 49.9646C35.1499 49.6569 34.7404 49.2301 34.4458 48.6841C34.1554 48.1338 34.0103 47.4968 34.0103 46.7731C34.0103 46.0061 34.1533 45.3409 34.4393 44.7776C34.7296 44.2143 35.1326 43.7788 35.6483 43.4711C36.1639 43.1634 36.7641 43.0096 37.4488 43.0096C38.1638 43.0096 38.7726 43.1764 39.2753 43.5101C39.7779 43.8394 40.1528 44.3096 40.3998 44.9206C40.6511 45.5316 40.7508 46.2574 40.6988 47.0981H39.3403V46.6041C39.3316 45.7894 39.1756 45.1871 38.8723 44.7971C38.5733 44.4071 38.1161 44.2121 37.5008 44.2121C36.8204 44.2121 36.3091 44.4266 35.9668 44.8556C35.6244 45.2846 35.4533 45.9043 35.4533 46.7146C35.4533 47.4859 35.6244 48.0839 35.9668 48.5086C36.3091 48.9289 36.8031 49.1391 37.4488 49.1391C37.8734 49.1391 38.2396 49.0438 38.5473 48.8531C38.8593 48.6581 39.1019 48.3808 39.2753 48.0211L40.6078 48.4436C40.3348 49.0719 39.9209 49.5594 39.3663 49.9061C38.8116 50.2484 38.1941 50.4196 37.5138 50.4196ZM35.0113 47.0981V46.0386H40.0228V47.0981H35.0113ZM44.5816 50.4131C43.7279 50.4131 43.0324 50.2246 42.4951 49.8476C41.9578 49.4706 41.6284 48.9398 41.5071 48.2551L42.8981 48.0406C42.9848 48.4046 43.1841 48.6928 43.4961 48.9051C43.8124 49.1131 44.2046 49.2171 44.6726 49.2171C45.0973 49.2171 45.4288 49.1304 45.6671 48.9571C45.9098 48.7838 46.0311 48.5454 46.0311 48.2421C46.0311 48.0644 45.9878 47.9214 45.9011 47.8131C45.8188 47.7004 45.6433 47.5943 45.3746 47.4946C45.1059 47.3949 44.6964 47.2714 44.1461 47.1241C43.5438 46.9681 43.0649 46.8013 42.7096 46.6236C42.3586 46.4416 42.1073 46.2314 41.9556 45.9931C41.8083 45.7504 41.7346 45.4579 41.7346 45.1156C41.7346 44.6909 41.8473 44.3204 42.0726 44.0041C42.2979 43.6878 42.6143 43.4429 43.0216 43.2696C43.4333 43.0963 43.9143 43.0096 44.4646 43.0096C45.0019 43.0096 45.4808 43.0941 45.9011 43.2631C46.3214 43.4321 46.6616 43.6726 46.9216 43.9846C47.1816 44.2923 47.3376 44.6541 47.3896 45.0701L45.9986 45.3236C45.9509 44.9856 45.7928 44.7191 45.5241 44.5241C45.2554 44.3291 44.9066 44.2229 44.4776 44.2056C44.0659 44.1883 43.7323 44.2576 43.4766 44.4136C43.2209 44.5653 43.0931 44.7754 43.0931 45.0441C43.0931 45.2001 43.1408 45.3323 43.2361 45.4406C43.3358 45.5489 43.5264 45.6529 43.8081 45.7526C44.0898 45.8523 44.5058 45.9714 45.0561 46.1101C45.6454 46.2618 46.1134 46.4308 46.4601 46.6171C46.8068 46.7991 47.0538 47.0179 47.2011 47.2736C47.3528 47.5249 47.4286 47.8304 47.4286 48.1901C47.4286 48.8834 47.1751 49.4273 46.6681 49.8216C46.1654 50.2159 45.4699 50.4131 44.5816 50.4131ZM51.2913 50.4131C50.4377 50.4131 49.7422 50.2246 49.2048 49.8476C48.6675 49.4706 48.3382 48.9398 48.2168 48.2551L49.6078 48.0406C49.6945 48.4046 49.8938 48.6928 50.2058 48.9051C50.5222 49.1131 50.9143 49.2171 51.3823 49.2171C51.807 49.2171 52.1385 49.1304 52.3768 48.9571C52.6195 48.7838 52.7408 48.5454 52.7408 48.2421C52.7408 48.0644 52.6975 47.9214 52.6108 47.8131C52.5285 47.7004 52.353 47.5943 52.0843 47.4946C51.8157 47.3949 51.4062 47.2714 50.8558 47.1241C50.2535 46.9681 49.7747 46.8013 49.4193 46.6236C49.0683 46.4416 48.817 46.2314 48.6653 45.9931C48.518 45.7504 48.4443 45.4579 48.4443 45.1156C48.4443 44.6909 48.557 44.3204 48.7823 44.0041C49.0077 43.6878 49.324 43.4429 49.7313 43.2696C50.143 43.0963 50.624 43.0096 51.1743 43.0096C51.7117 43.0096 52.1905 43.0941 52.6108 43.2631C53.0312 43.4321 53.3713 43.6726 53.6313 43.9846C53.8913 44.2923 54.0473 44.6541 54.0993 45.0701L52.7083 45.3236C52.6607 44.9856 52.5025 44.7191 52.2338 44.5241C51.9652 44.3291 51.6163 44.2229 51.1873 44.2056C50.7757 44.1883 50.442 44.2576 50.1863 44.4136C49.9307 44.5653 49.8028 44.7754 49.8028 45.0441C49.8028 45.2001 49.8505 45.3323 49.9458 45.4406C50.0455 45.5489 50.2362 45.6529 50.5178 45.7526C50.7995 45.8523 51.2155 45.9714 51.7658 46.1101C52.3552 46.2618 52.8232 46.4308 53.1698 46.6171C53.5165 46.7991 53.7635 47.0179 53.9108 47.2736C54.0625 47.5249 54.1383 47.8304 54.1383 48.1901C54.1383 48.8834 53.8848 49.4273 53.3778 49.8216C52.8752 50.2159 52.1797 50.4131 51.2913 50.4131ZM55.4466 42.0541V40.7346H56.8051V42.0541H55.4466ZM55.4466 50.2246V43.2046H56.8051V50.2246H55.4466ZM61.5455 50.4196C60.8435 50.4196 60.2347 50.2614 59.719 49.9451C59.2033 49.6288 58.8047 49.1933 58.523 48.6386C58.2457 48.0796 58.107 47.4361 58.107 46.7081C58.107 45.9758 58.25 45.3323 58.536 44.7776C58.822 44.2186 59.2228 43.7853 59.7385 43.4776C60.2542 43.1656 60.8565 43.0096 61.5455 43.0096C62.2475 43.0096 62.8563 43.1678 63.372 43.4841C63.8877 43.8004 64.2863 44.2359 64.568 44.7906C64.8497 45.3453 64.9905 45.9844 64.9905 46.7081C64.9905 47.4404 64.8475 48.0861 64.5615 48.6451C64.2798 49.1998 63.8812 49.6353 63.3655 49.9516C62.8498 50.2636 62.2432 50.4196 61.5455 50.4196ZM61.5455 49.1391C62.2172 49.1391 62.7177 48.9138 63.047 48.4631C63.3807 48.0081 63.5475 47.4231 63.5475 46.7081C63.5475 45.9758 63.3785 45.3908 63.0405 44.9531C62.7068 44.5111 62.2085 44.2901 61.5455 44.2901C61.0905 44.2901 60.7157 44.3941 60.421 44.6021C60.1263 44.8058 59.9075 45.0896 59.7645 45.4536C59.6215 45.8133 59.55 46.2314 59.55 46.7081C59.55 47.4448 59.719 48.0341 60.057 48.4761C60.395 48.9181 60.8912 49.1391 61.5455 49.1391ZM71.0859 50.2246V46.7731C71.0859 46.5001 71.062 46.2206 71.0144 45.9346C70.971 45.6443 70.8844 45.3756 70.7544 45.1286C70.6287 44.8816 70.4489 44.6823 70.2149 44.5306C69.9852 44.3789 69.684 44.3031 69.3114 44.3031C69.0687 44.3031 68.839 44.3443 68.6224 44.4266C68.4057 44.5046 68.215 44.6324 68.0504 44.8101C67.89 44.9878 67.7622 45.2218 67.6669 45.5121C67.5759 45.8024 67.5304 46.1556 67.5304 46.5716L66.6854 46.2531C66.6854 45.6161 66.8045 45.0549 67.0429 44.5696C67.2812 44.0799 67.6235 43.6986 68.0699 43.4256C68.5162 43.1526 69.0557 43.0161 69.6884 43.0161C70.1737 43.0161 70.581 43.0941 70.9104 43.2501C71.2397 43.4061 71.5062 43.6119 71.7099 43.8676C71.9179 44.1189 72.076 44.3941 72.1844 44.6931C72.2927 44.9921 72.3664 45.2846 72.4054 45.5706C72.4444 45.8566 72.4639 46.1079 72.4639 46.3246V50.2246H71.0859ZM66.1524 50.2246V43.2046H67.3679V45.2326H67.5304V50.2246H66.1524ZM75.8794 50.4196C75.3594 50.4196 74.9239 50.3243 74.5729 50.1336C74.2219 49.9386 73.9554 49.6829 73.7734 49.3666C73.5957 49.0459 73.5069 48.6949 73.5069 48.3136C73.5069 47.9583 73.5697 47.6463 73.6954 47.3776C73.8211 47.1089 74.0074 46.8814 74.2544 46.6951C74.5014 46.5044 74.8047 46.3506 75.1644 46.2336C75.4764 46.1426 75.8296 46.0624 76.2239 45.9931C76.6182 45.9238 77.0321 45.8588 77.4654 45.7981C77.9031 45.7374 78.3364 45.6768 78.7654 45.6161L78.2714 45.8891C78.2801 45.3388 78.1631 44.9314 77.9204 44.6671C77.6821 44.3984 77.2704 44.2641 76.6854 44.2641C76.3171 44.2641 75.9791 44.3508 75.6714 44.5241C75.3637 44.6931 75.1492 44.9748 75.0279 45.3691L73.7604 44.9791C73.9337 44.3768 74.2631 43.8979 74.7484 43.5426C75.2381 43.1873 75.8881 43.0096 76.6984 43.0096C77.3267 43.0096 77.8727 43.1179 78.3364 43.3346C78.8044 43.5469 79.1467 43.8849 79.3634 44.3486C79.4761 44.5783 79.5454 44.8209 79.5714 45.0766C79.5974 45.3323 79.6104 45.6074 79.6104 45.9021V50.2246H78.4079V48.6191L78.6419 48.8271C78.3516 49.3644 77.9811 49.7653 77.5304 50.0296C77.0841 50.2896 76.5337 50.4196 75.8794 50.4196ZM76.1199 49.3081C76.5056 49.3081 76.8371 49.2409 77.1144 49.1066C77.3917 48.9679 77.6149 48.7924 77.7839 48.5801C77.9529 48.3678 78.0634 48.1468 78.1154 47.9171C78.1891 47.7091 78.2302 47.4751 78.2389 47.2151C78.2519 46.9551 78.2584 46.7471 78.2584 46.5911L78.7004 46.7536C78.2714 46.8186 77.8814 46.8771 77.5304 46.9291C77.1794 46.9811 76.8609 47.0331 76.5749 47.0851C76.2932 47.1328 76.0419 47.1913 75.8209 47.2606C75.6346 47.3256 75.4677 47.4036 75.3204 47.4946C75.1774 47.5856 75.0626 47.6961 74.9759 47.8261C74.8936 47.9561 74.8524 48.1143 74.8524 48.3006C74.8524 48.4826 74.8979 48.6516 74.9889 48.8076C75.0799 48.9593 75.2186 49.0806 75.4049 49.1716C75.5912 49.2626 75.8296 49.3081 76.1199 49.3081ZM81.1683 50.2246V40.6696H82.5268V50.2246H81.1683ZM13.8165 65.4196C12.8805 65.4196 12.0832 65.2159 11.4245 64.8086C10.7658 64.3969 10.261 63.8249 9.91 63.0926C9.56333 62.3603 9.39 61.5109 9.39 60.5446C9.39 59.5783 9.56333 58.7289 9.91 57.9966C10.261 57.2643 10.7658 56.6944 11.4245 56.2871C12.0832 55.8754 12.8805 55.6696 13.8165 55.6696C14.8955 55.6696 15.7882 55.9426 16.4945 56.4886C17.2052 57.0346 17.6992 57.7691 17.9765 58.6921L16.5985 59.0626C16.4165 58.4083 16.0915 57.8948 15.6235 57.5221C15.1598 57.1494 14.5575 56.9631 13.8165 56.9631C13.1535 56.9631 12.601 57.1126 12.159 57.4116C11.717 57.7106 11.3833 58.1288 11.158 58.6661C10.937 59.2034 10.8265 59.8296 10.8265 60.5446C10.8222 61.2596 10.9305 61.8858 11.1515 62.4231C11.3768 62.9604 11.7105 63.3786 12.1525 63.6776C12.5988 63.9766 13.1535 64.1261 13.8165 64.1261C14.5575 64.1261 15.1598 63.9398 15.6235 63.5671C16.0915 63.1901 16.4165 62.6766 16.5985 62.0266L17.9765 62.3971C17.6992 63.3201 17.2052 64.0546 16.4945 64.6006C15.7882 65.1466 14.8955 65.4196 13.8165 65.4196ZM22.2596 65.4196C21.5619 65.4196 20.9488 65.2679 20.4201 64.9646C19.8958 64.6569 19.4863 64.2301 19.1916 63.6841C18.9013 63.1338 18.7561 62.4968 18.7561 61.7731C18.7561 61.0061 18.8991 60.3409 19.1851 59.7776C19.4754 59.2143 19.8784 58.7788 20.3941 58.4711C20.9098 58.1634 21.5099 58.0096 22.1946 58.0096C22.9096 58.0096 23.5184 58.1764 24.0211 58.5101C24.5238 58.8394 24.8986 59.3096 25.1456 59.9206C25.3969 60.5316 25.4966 61.2574 25.4446 62.0981H24.0861V61.6041C24.0774 60.7894 23.9214 60.1871 23.6181 59.7971C23.3191 59.4071 22.8619 59.2121 22.2466 59.2121C21.5663 59.2121 21.0549 59.4266 20.7126 59.8556C20.3703 60.2846 20.1991 60.9043 20.1991 61.7146C20.1991 62.4859 20.3703 63.0839 20.7126 63.5086C21.0549 63.9289 21.5489 64.1391 22.1946 64.1391C22.6193 64.1391 22.9854 64.0438 23.2931 63.8531C23.6051 63.6581 23.8478 63.3808 24.0211 63.0211L25.3536 63.4436C25.0806 64.0719 24.6668 64.5594 24.1121 64.9061C23.5574 65.2484 22.9399 65.4196 22.2596 65.4196ZM19.7571 62.0981V61.0386H24.7686V62.0981H19.7571ZM26.6429 65.2246V58.2046H27.8519V59.9076L27.6829 59.6866C27.7696 59.4613 27.8823 59.2554 28.0209 59.0691C28.1596 58.8784 28.3199 58.7224 28.5019 58.6011C28.6796 58.4711 28.8768 58.3714 29.0934 58.3021C29.3144 58.2284 29.5398 58.1851 29.7694 58.1721C29.9991 58.1548 30.2201 58.1656 30.4324 58.2046V59.4786C30.2028 59.4179 29.9471 59.4006 29.6654 59.4266C29.3881 59.4526 29.1324 59.5414 28.8984 59.6931C28.6774 59.8361 28.5019 60.0094 28.3719 60.2131C28.2463 60.4168 28.1553 60.6443 28.0989 60.8956C28.0426 61.1426 28.0144 61.4048 28.0144 61.6821V65.2246H26.6429ZM35.4273 65.2246C34.9853 65.3113 34.5519 65.3481 34.1273 65.3351C33.7026 65.3221 33.3234 65.2398 32.9898 65.0881C32.6561 64.9364 32.4048 64.6981 32.2358 64.3731C32.0841 64.0828 32.0018 63.7881 31.9888 63.4891C31.9801 63.1858 31.9758 62.8434 31.9758 62.4621V56.2546H33.3408V62.3971C33.3408 62.6788 33.3429 62.9236 33.3473 63.1316C33.3559 63.3396 33.4014 63.5151 33.4838 63.6581C33.6398 63.9268 33.8868 64.0806 34.2248 64.1196C34.5671 64.1543 34.9679 64.1391 35.4273 64.0741V65.2246ZM30.6303 59.2966V58.2046H35.4273V59.2966H30.6303ZM36.7773 57.0541V55.7346H38.1358V57.0541H36.7773ZM36.7773 65.2246V58.2046H38.1358V65.2246H36.7773ZM40.4713 65.2246V57.9576C40.4713 57.7799 40.4778 57.5914 40.4908 57.3921C40.5038 57.1884 40.5406 56.9891 40.6013 56.7941C40.6663 56.5948 40.7724 56.4128 40.9198 56.2481C41.0974 56.0531 41.2924 55.9144 41.5048 55.8321C41.7171 55.7498 41.9273 55.7021 42.1353 55.6891C42.3476 55.6761 42.5426 55.6696 42.7203 55.6696H43.6043V56.7876H42.7853C42.4646 56.7876 42.2241 56.8678 42.0638 57.0281C41.9078 57.1841 41.8298 57.4073 41.8298 57.6976V65.2246H40.4713ZM39.3078 59.2966V58.2046H43.6043V59.2966H39.3078ZM44.9693 57.0541V55.7346H46.3278V57.0541H44.9693ZM44.9693 65.2246V58.2046H46.3278V65.2246H44.9693ZM51.0259 65.4196C50.3065 65.4196 49.6955 65.2593 49.1929 64.9386C48.6902 64.6179 48.3045 64.1781 48.0359 63.6191C47.7715 63.0601 47.6372 62.4253 47.6329 61.7146C47.6372 60.9909 47.7759 60.3518 48.0489 59.7971C48.3219 59.2381 48.7119 58.8004 49.2189 58.4841C49.7259 58.1678 50.3347 58.0096 51.0454 58.0096C51.8124 58.0096 52.4667 58.2003 53.0084 58.5816C53.5544 58.9629 53.914 59.4851 54.0874 60.1481L52.7354 60.5381C52.601 60.1438 52.38 59.8383 52.0724 59.6216C51.769 59.4006 51.4202 59.2901 51.0259 59.2901C50.5795 59.2901 50.2134 59.3963 49.9274 59.6086C49.6414 59.8166 49.429 60.1026 49.2904 60.4666C49.1517 60.8306 49.0802 61.2466 49.0759 61.7146C49.0802 62.4383 49.2449 63.0233 49.5699 63.4696C49.8992 63.9159 50.3845 64.1391 51.0259 64.1391C51.4635 64.1391 51.8167 64.0394 52.0854 63.8401C52.3584 63.6364 52.5664 63.3461 52.7094 62.9691L54.0874 63.2941C53.8577 63.9788 53.4785 64.5053 52.9499 64.8736C52.4212 65.2376 51.7799 65.4196 51.0259 65.4196ZM57.0452 65.4196C56.5252 65.4196 56.0897 65.3243 55.7387 65.1336C55.3877 64.9386 55.1212 64.6829 54.9392 64.3666C54.7615 64.0459 54.6727 63.6949 54.6727 63.3136C54.6727 62.9583 54.7355 62.6463 54.8612 62.3776C54.9868 62.1089 55.1732 61.8814 55.4202 61.6951C55.6672 61.5044 55.9705 61.3506 56.3302 61.2336C56.6422 61.1426 56.9953 61.0624 57.3897 60.9931C57.784 60.9238 58.1978 60.8588 58.6312 60.7981C59.0688 60.7374 59.5022 60.6768 59.9312 60.6161L59.4372 60.8891C59.4458 60.3388 59.3288 59.9314 59.0862 59.6671C58.8478 59.3984 58.4362 59.2641 57.8512 59.2641C57.4828 59.2641 57.1448 59.3508 56.8372 59.5241C56.5295 59.6931 56.315 59.9748 56.1937 60.3691L54.9262 59.9791C55.0995 59.3768 55.4288 58.8979 55.9142 58.5426C56.4038 58.1873 57.0538 58.0096 57.8642 58.0096C58.4925 58.0096 59.0385 58.1179 59.5022 58.3346C59.9702 58.5469 60.3125 58.8849 60.5292 59.3486C60.6418 59.5783 60.7112 59.8209 60.7372 60.0766C60.7632 60.3323 60.7762 60.6074 60.7762 60.9021V65.2246H59.5737V63.6191L59.8077 63.8271C59.5173 64.3644 59.1468 64.7653 58.6962 65.0296C58.2498 65.2896 57.6995 65.4196 57.0452 65.4196ZM57.2857 64.3081C57.6713 64.3081 58.0028 64.2409 58.2802 64.1066C58.5575 63.9679 58.7807 63.7924 58.9497 63.5801C59.1187 63.3678 59.2292 63.1468 59.2812 62.9171C59.3548 62.7091 59.396 62.4751 59.4047 62.2151C59.4177 61.9551 59.4242 61.7471 59.4242 61.5911L59.8662 61.7536C59.4372 61.8186 59.0472 61.8771 58.6962 61.9291C58.3452 61.9811 58.0267 62.0331 57.7407 62.0851C57.459 62.1328 57.2077 62.1913 56.9867 62.2606C56.8003 62.3256 56.6335 62.4036 56.4862 62.4946C56.3432 62.5856 56.2283 62.6961 56.1417 62.8261C56.0593 62.9561 56.0182 63.1143 56.0182 63.3006C56.0182 63.4826 56.0637 63.6516 56.1547 63.8076C56.2457 63.9593 56.3843 64.0806 56.5707 64.1716C56.757 64.2626 56.9953 64.3081 57.2857 64.3081ZM66.221 65.2246C65.779 65.3113 65.3457 65.3481 64.921 65.3351C64.4964 65.3221 64.1172 65.2398 63.7835 65.0881C63.4499 64.9364 63.1985 64.6981 63.0295 64.3731C62.8779 64.0828 62.7955 63.7881 62.7825 63.4891C62.7739 63.1858 62.7695 62.8434 62.7695 62.4621V56.2546H64.1345V62.3971C64.1345 62.6788 64.1367 62.9236 64.141 63.1316C64.1497 63.3396 64.1952 63.5151 64.2775 63.6581C64.4335 63.9268 64.6805 64.0806 65.0185 64.1196C65.3609 64.1543 65.7617 64.1391 66.221 64.0741V65.2246ZM61.424 59.2966V58.2046H66.221V59.2966H61.424ZM67.5711 57.0541V55.7346H68.9296V57.0541H67.5711ZM67.5711 65.2246V58.2046H68.9296V65.2246H67.5711ZM73.67 65.4196C72.968 65.4196 72.3592 65.2614 71.8435 64.9451C71.3279 64.6288 70.9292 64.1933 70.6475 63.6386C70.3702 63.0796 70.2315 62.4361 70.2315 61.7081C70.2315 60.9758 70.3745 60.3323 70.6605 59.7776C70.9465 59.2186 71.3474 58.7853 71.863 58.4776C72.3787 58.1656 72.981 58.0096 73.67 58.0096C74.372 58.0096 74.9809 58.1678 75.4965 58.4841C76.0122 58.8004 76.4109 59.2359 76.6925 59.7906C76.9742 60.3453 77.115 60.9844 77.115 61.7081C77.115 62.4404 76.972 63.0861 76.686 63.6451C76.4044 64.1998 76.0057 64.6353 75.49 64.9516C74.9744 65.2636 74.3677 65.4196 73.67 65.4196ZM73.67 64.1391C74.3417 64.1391 74.8422 63.9138 75.1715 63.4631C75.5052 63.0081 75.672 62.4231 75.672 61.7081C75.672 60.9758 75.503 60.3908 75.165 59.9531C74.8314 59.5111 74.333 59.2901 73.67 59.2901C73.215 59.2901 72.8402 59.3941 72.5455 59.6021C72.2509 59.8058 72.032 60.0896 71.889 60.4536C71.746 60.8133 71.6745 61.2314 71.6745 61.7081C71.6745 62.4448 71.8435 63.0341 72.1815 63.4761C72.5195 63.9181 73.0157 64.1391 73.67 64.1391ZM83.2104 65.2246V61.7731C83.2104 61.5001 83.1866 61.2206 83.1389 60.9346C83.0956 60.6443 83.0089 60.3756 82.8789 60.1286C82.7532 59.8816 82.5734 59.6823 82.3394 59.5306C82.1097 59.3789 81.8086 59.3031 81.4359 59.3031C81.1932 59.3031 80.9636 59.3443 80.7469 59.4266C80.5302 59.5046 80.3396 59.6324 80.1749 59.8101C80.0146 59.9878 79.8867 60.2218 79.7914 60.5121C79.7004 60.8024 79.6549 61.1556 79.6549 61.5716L78.8099 61.2531C78.8099 60.6161 78.9291 60.0549 79.1674 59.5696C79.4057 59.0799 79.7481 58.6986 80.1944 58.4256C80.6407 58.1526 81.1802 58.0161 81.8129 58.0161C82.2982 58.0161 82.7056 58.0941 83.0349 58.2501C83.3642 58.4061 83.6307 58.6119 83.8344 58.8676C84.0424 59.1189 84.2006 59.3941 84.3089 59.6931C84.4172 59.9921 84.4909 60.2846 84.5299 60.5706C84.5689 60.8566 84.5884 61.1079 84.5884 61.3246V65.2246H83.2104ZM78.2769 65.2246V58.2046H79.4924V60.2326H79.6549V65.2246H78.2769ZM86.1514 65.2246V63.7881H87.5879V65.2246H86.1514ZM88.8359 65.2246V63.7881H90.2724V65.2246H88.8359ZM91.5269 65.2246V63.7881H92.9634V65.2246H91.5269Z" fill="#5A5A5A"/>
</g>
<path d="M11.76 79.3596C11.4 79.3596 11.06 79.2896 10.74 79.1496C10.42 79.0096 10.1417 78.8113 9.905 78.5546C9.67167 78.2979 9.50333 77.9946 9.4 77.6446L10.565 77.3296C10.6483 77.6163 10.8 77.8379 11.02 77.9946C11.2433 78.1479 11.4883 78.2229 11.755 78.2196C11.9917 78.2196 12.2033 78.1646 12.39 78.0546C12.5767 77.9446 12.7233 77.7963 12.83 77.6096C12.9367 77.4196 12.99 77.2079 12.99 76.9746C12.99 76.6179 12.875 76.3196 12.645 76.0796C12.415 75.8396 12.1183 75.7196 11.755 75.7196C11.645 75.7196 11.5367 75.7346 11.43 75.7646C11.3267 75.7946 11.2267 75.8363 11.13 75.8896L10.58 74.9396L13 72.8696L13.105 73.1596H9.68V72.0246H14.095V73.1646L12.15 75.0346L12.14 74.6796C12.5767 74.7096 12.9483 74.8313 13.255 75.0446C13.565 75.2579 13.8017 75.5329 13.965 75.8696C14.1317 76.2063 14.215 76.5746 14.215 76.9746C14.215 77.4279 14.1033 77.8346 13.88 78.1946C13.66 78.5546 13.3633 78.8396 12.99 79.0496C12.62 79.2563 12.21 79.3596 11.76 79.3596Z" fill="#757575"/>
</g>
<defs>
<filter id="filter0_ddd_191_12220" x="0.467928" y="0.692538" width="117.128" height="93.1283" filterUnits="userSpaceOnUse" color-interpolation-filters="sRGB">
<feFlood flood-opacity="0" result="BackgroundImageFix"/>
<feColorMatrix in="SourceAlpha" type="matrix" values="0 0 0 0 0 0 0 0 0 0 0 0 0 0 0 0 0 0 127 0" result="hardAlpha"/>
<feOffset dx="3.53207" dy="3.53207"/>
<feGaussianBlur stdDeviation="3.53207"/>
<feComposite in2="hardAlpha" operator="out"/>
<feColorMatrix type="matrix" values="0 0 0 0 0 0 0 0 0 0 0 0 0 0 0 0 0 0 0.6 0"/>
<feBlend mode="normal" in2="BackgroundImageFix" result="effect1_dropShadow_191_12220"/>
<feColorMatrix in="SourceAlpha" type="matrix" values="0 0 0 0 0 0 0 0 0 0 0 0 0 0 0 0 0 0 127 0" result="hardAlpha"/>
<feOffset dx="1.76604" dy="1.76604"/>
<feGaussianBlur stdDeviation="1.76604"/>
<feComposite in2="hardAlpha" operator="out"/>
<feColorMatrix type="matrix" values="0 0 0 0 0 0 0 0 0 0 0 0 0 0 0 0 0 0 0.25 0"/>
<feBlend mode="normal" in2="effect1_dropShadow_191_12220" result="effect2_dropShadow_191_12220"/>
<feColorMatrix in="SourceAlpha" type="matrix" values="0 0 0 0 0 0 0 0 0 0 0 0 0 0 0 0 0 0 127 0" result="hardAlpha"/>
<feOffset dx="0.883018" dy="0.883018"/>
<feGaussianBlur stdDeviation="0.883018"/>
<feComposite in2="hardAlpha" operator="out"/>
<feColorMatrix type="matrix" values="0 0 0 0 0 0 0 0 0 0 0 0 0 0 0 0 0 0 0.5 0"/>
<feBlend mode="normal" in2="effect2_dropShadow_191_12220" result="effect3_dropShadow_191_12220"/>
<feBlend mode="normal" in="SourceGraphic" in2="effect3_dropShadow_191_12220" result="shape"/>
</filter>
<filter id="filter1_ddd_191_12220" x="20.8438" y="10.2246" width="68.5278" height="31.1086" filterUnits="userSpaceOnUse" color-interpolation-filters="sRGB">
<feFlood flood-opacity="0" result="BackgroundImageFix"/>
<feColorMatrix in="SourceAlpha" type="matrix" values="0 0 0 0 0 0 0 0 0 0 0 0 0 0 0 0 0 0 127 0" result="hardAlpha"/>
<feOffset dx="3" dy="8"/>
<feGaussianBlur stdDeviation="3"/>
<feComposite in2="hardAlpha" operator="out"/>
<feColorMatrix type="matrix" values="0 0 0 0 0.509804 0 0 0 0 0.486275 0 0 0 0 0.478431 0 0 0 0.3 0"/>
<feBlend mode="normal" in2="BackgroundImageFix" result="effect1_dropShadow_191_12220"/>
<feColorMatrix in="SourceAlpha" type="matrix" values="0 0 0 0 0 0 0 0 0 0 0 0 0 0 0 0 0 0 127 0" result="hardAlpha"/>
<feOffset dx="1" dy="1"/>
<feGaussianBlur stdDeviation="1"/>
<feComposite in2="hardAlpha" operator="out"/>
<feColorMatrix type="matrix" values="0 0 0 0 0.521569 0 0 0 0 0.494118 0 0 0 0 0.486275 0 0 0 1 0"/>
<feBlend mode="normal" in2="effect1_dropShadow_191_12220" result="effect2_dropShadow_191_12220"/>
<feColorMatrix in="SourceAlpha" type="matrix" values="0 0 0 0 0 0 0 0 0 0 0 0 0 0 0 0 0 0 127 0" result="hardAlpha"/>
<feOffset/>
<feGaussianBlur stdDeviation="0.5"/>
<feComposite in2="hardAlpha" operator="out"/>
<feColorMatrix type="matrix" values="0 0 0 0 0.882353 0 0 0 0 0.882353 0 0 0 0 0.882353 0 0 0 0.4 0"/>
<feBlend mode="normal" in2="effect2_dropShadow_191_12220" result="effect3_dropShadow_191_12220"/>
<feBlend mode="normal" in="SourceGraphic" in2="effect3_dropShadow_191_12220" result="shape"/>
</filter>
<filter id="filter2_ddd_191_12220" x="1" y="3.22461" width="115" height="94" filterUnits="userSpaceOnUse" color-interpolation-filters="sRGB">
<feFlood flood-opacity="0" result="BackgroundImageFix"/>
<feColorMatrix in="SourceAlpha" type="matrix" values="0 0 0 0 0 0 0 0 0 0 0 0 0 0 0 0 0 0 127 0" result="hardAlpha"/>
<feOffset dx="3" dy="8"/>
<feGaussianBlur stdDeviation="3"/>
<feComposite in2="hardAlpha" operator="out"/>
<feColorMatrix type="matrix" values="0 0 0 0 0.509804 0 0 0 0 0.486275 0 0 0 0 0.478431 0 0 0 0.3 0"/>
<feBlend mode="normal" in2="BackgroundImageFix" result="effect1_dropShadow_191_12220"/>
<feColorMatrix in="SourceAlpha" type="matrix" values="0 0 0 0 0 0 0 0 0 0 0 0 0 0 0 0 0 0 127 0" result="hardAlpha"/>
<feOffset dx="1" dy="1"/>
<feGaussianBlur stdDeviation="1"/>
<feComposite in2="hardAlpha" operator="out"/>
<feColorMatrix type="matrix" values="0 0 0 0 0.521569 0 0 0 0 0.494118 0 0 0 0 0.486275 0 0 0 1 0"/>
<feBlend mode="normal" in2="effect1_dropShadow_191_12220" result="effect2_dropShadow_191_12220"/>
<feColorMatrix in="SourceAlpha" type="matrix" values="0 0 0 0 0 0 0 0 0 0 0 0 0 0 0 0 0 0 127 0" result="hardAlpha"/>
<feOffset/>
<feGaussianBlur stdDeviation="0.5"/>
<feComposite in2="hardAlpha" operator="out"/>
<feColorMatrix type="matrix" values="0 0 0 0 0.882353 0 0 0 0 0.882353 0 0 0 0 0.882353 0 0 0 0.4 0"/>
<feBlend mode="normal" in2="effect2_dropShadow_191_12220" result="effect3_dropShadow_191_12220"/>
<feBlend mode="normal" in="SourceGraphic" in2="effect3_dropShadow_191_12220" result="shape"/>
</filter>
<filter id="filter3_i_191_12220" x="9.38989" y="40.6696" width="83.5735" height="28.75" filterUnits="userSpaceOnUse" color-interpolation-filters="sRGB">
<feFlood flood-opacity="0" result="BackgroundImageFix"/>
<feBlend mode="normal" in="SourceGraphic" in2="BackgroundImageFix" result="shape"/>
<feColorMatrix in="SourceAlpha" type="matrix" values="0 0 0 0 0 0 0 0 0 0 0 0 0 0 0 0 0 0 127 0" result="hardAlpha"/>
<feOffset dy="4"/>
<feGaussianBlur stdDeviation="2"/>
<feComposite in2="hardAlpha" operator="arithmetic" k2="-1" k3="1"/>
<feColorMatrix type="matrix" values="0 0 0 0 1 0 0 0 0 1 0 0 0 0 1 0 0 0 0.05 0"/>
<feBlend mode="normal" in2="shape" result="effect1_innerShadow_191_12220"/>
</filter>
<linearGradient id="paint0_linear_191_12220" x1="116.362" y1="0.224611" x2="151.897" y2="101.243" gradientUnits="userSpaceOnUse">
<stop stop-color="#14AE5C"/>
<stop offset="1" stop-color="#AFF4C6"/>
</linearGradient>
<linearGradient id="paint1_linear_191_12220" x1="119.776" y1="25.9403" x2="201.946" y2="204.021" gradientUnits="userSpaceOnUse">
<stop stop-color="white" stop-opacity="0.6"/>
<stop offset="1" stop-color="#928C87"/>
</linearGradient>
<linearGradient id="paint2_linear_191_12220" x1="96.5177" y1="-6.77539" x2="132.053" y2="94.2433" gradientUnits="userSpaceOnUse">
<stop stop-color="white"/>
<stop offset="1" stop-color="#DEDEDE"/>
</linearGradient>
<linearGradient id="paint3_linear_191_12220" x1="99.9314" y1="18.9403" x2="182.102" y2="197.021" gradientUnits="userSpaceOnUse">
<stop stop-color="white" stop-opacity="0.6"/>
<stop offset="1" stop-color="#928C87"/>
</linearGradient>
</defs>
</svg>
