<svg width="253" height="182" viewBox="0 0 253 182" fill="none" xmlns="http://www.w3.org/2000/svg">
<g filter="url(#filter0_d_1_8)">
<path d="M184.146 86.3467L193.532 154.534C193.878 157.047 192.121 159.365 189.608 159.711L70.914 176.049C68.4008 176.395 66.083 174.638 65.7371 172.125L53.6263 84.1413C53.2804 81.6281 55.0373 79.3103 57.5504 78.9644L108.42 71.9622C110.001 71.7446 111.582 72.3631 112.595 73.5958L124.23 87.7491C125.243 88.9819 126.824 89.6004 128.404 89.3828L178.969 82.4226C181.482 82.0767 183.8 83.8336 184.146 86.3467Z" fill="#AFA8A8"/>
</g>
<g clip-path="url(#clip0_1_8)">
<path d="M95.9462 75.9399L73.7747 41.1434L46.7898 35.1631L26.6444 47.9993C24.7016 49.2372 23.3301 51.1963 22.8316 53.4454C22.3332 55.6946 22.7486 58.0497 23.9866 59.9925L51.9927 103.946C53.2306 105.889 55.1897 107.26 57.4389 107.759C59.688 108.257 62.0431 107.842 63.986 106.604L93.2883 87.9332C95.2312 86.6952 96.6027 84.7362 97.1011 82.487C97.5996 80.2378 97.1841 77.8828 95.9462 75.9399ZM53.7913 46.1515C54.7198 47.6086 56.1891 48.6373 57.876 49.0111C59.5628 49.385 61.3291 49.0734 62.7863 48.1449L70.1119 43.4772L92.2834 78.2737C92.9024 79.2452 93.1101 80.4227 92.8609 81.5473C92.6116 82.6719 91.9259 83.6514 90.9544 84.2704L61.6521 102.941C60.6807 103.56 59.5032 103.768 58.3786 103.519C57.254 103.269 56.2745 102.584 55.6555 101.612L27.6493 57.6587C27.0304 56.6873 26.8226 55.5097 27.0719 54.3851C27.3211 53.2606 28.0069 52.281 28.9783 51.6621L49.1236 38.8259L53.7913 46.1515Z" fill="#EC221F"/>
<path d="M61.7301 98.1899C60.8343 98.3593 59.9077 98.1742 59.1456 97.6738C57.5258 96.7077 56.8584 95.1348 56.8667 93.4506C56.8755 91.8641 57.4677 90.1426 58.3155 88.4746C59.4148 86.4016 60.7297 84.4504 62.2384 82.6533C62.0253 79.0843 61.5885 75.5321 60.9309 72.0177C59.2845 70.9181 57.7453 69.666 56.3335 68.278C55.085 67.0136 54.0399 65.6401 53.5138 64.2244C52.9623 62.7527 52.949 61.1235 53.9738 59.6929C54.4974 58.9628 55.1589 58.3198 55.9991 58.0059C56.4218 57.848 56.8743 57.7861 57.3239 57.8248C57.7734 57.8635 58.2087 58.0018 58.5981 58.2296C59.3032 58.6249 59.8685 59.2535 60.3189 59.9038C60.7833 60.576 61.1992 61.3822 61.5798 62.2624C62.4623 64.3265 63.2374 67.0462 63.862 70.0471C66.2496 71.5643 68.7677 72.8655 71.3864 73.9354C72.9347 72.7678 74.6136 71.7844 76.3893 71.0052C77.8766 70.3974 79.5329 70.0064 80.9908 70.4679C81.7664 70.7152 82.4445 71.1895 82.9323 71.8984C83.406 72.5853 83.6517 73.4073 83.7408 74.2826C83.8435 75.081 83.731 75.8923 83.415 76.6325C83.0914 77.3467 82.5503 77.9402 81.8691 78.3283C80.624 79.0495 79.0162 79.1367 77.4785 78.9784C75.5812 78.7427 73.7175 78.2885 71.9245 77.6248C69.6267 79.4842 67.4962 81.5413 65.5575 83.7726C65.6998 86.4111 65.6289 89.0568 65.3455 91.684C65.0928 93.6474 64.6459 95.5081 63.7869 96.7301C63.3105 97.4592 62.5756 97.9809 61.7301 98.1899V98.1899ZM62.3445 88.0086C61.9138 88.6744 61.5365 89.3268 61.2187 89.9515C60.4701 91.4276 60.131 92.617 60.1255 93.4651C60.1196 94.2156 60.3573 94.6048 60.8215 94.8807C60.9095 94.938 60.9788 94.9659 61.0194 94.9812C61.0557 94.9417 61.0892 94.8997 61.1196 94.8556C61.4907 94.3307 61.8714 93.1663 62.1105 91.2784C62.2388 90.1927 62.3168 89.1015 62.3445 88.0086V88.0086ZM65.2474 79.3095C66.2887 78.2448 67.3725 77.2226 68.4964 76.2454C67.1792 75.6498 65.8879 74.9984 64.626 74.293C64.879 75.9579 65.0855 77.6295 65.2451 79.3059L65.2474 79.3095ZM75.2568 75.2492C76.1867 75.4962 77.0412 75.6572 77.807 75.7357C79.1295 75.8715 79.8883 75.7125 80.2286 75.5112C80.3252 75.466 80.4034 75.3889 80.45 75.2928C80.5257 75.0754 80.5438 74.8421 80.5025 74.6156C80.4906 74.3095 80.4046 74.0109 80.2519 73.7454C80.1949 73.6607 80.1086 73.6001 80.0096 73.5753C79.6744 73.4696 78.9223 73.4853 77.6245 74.0187C76.8047 74.3669 76.0137 74.7796 75.2592 75.2529L75.2568 75.2492ZM59.7854 67.0518C59.4601 65.861 59.0593 64.6921 58.5856 63.5523C58.2604 62.7913 57.9426 62.1956 57.6395 61.7604C57.4834 61.5132 57.2877 61.2934 57.0602 61.1098C56.8914 61.2493 56.744 61.4126 56.6225 61.5947C56.3855 61.926 56.2911 62.3517 56.565 63.0887C56.8666 63.8854 57.5497 64.8766 58.6519 65.9922C58.9989 66.3428 59.3795 66.6976 59.7891 67.0495L59.7854 67.0518Z" fill="#EC221F"/>
</g>
<path d="M118.267 33.8531C117.619 33.7674 116.963 33.9426 116.445 34.3403C115.926 34.738 115.586 35.3255 115.5 35.9737C115.414 36.6219 115.59 37.2775 115.987 37.7965C116.385 38.3154 116.973 38.6552 117.621 38.7409L146.947 42.6207C147.596 42.7065 148.251 42.5312 148.77 42.1335C149.289 41.7359 149.629 41.1483 149.715 40.5001C149.8 39.852 149.625 39.1963 149.227 38.6774C148.83 38.1584 148.242 37.8187 147.594 37.7329L118.267 33.8531ZM114.207 45.7493C114.293 45.1011 114.632 44.5136 115.151 44.1159C115.67 43.7182 116.326 43.543 116.974 43.6287L146.301 47.5085C146.949 47.5943 147.536 47.934 147.934 48.4529C148.332 48.9719 148.507 49.6276 148.421 50.2757C148.336 50.9239 147.996 51.5114 147.477 51.9091C146.958 52.3068 146.302 52.482 145.654 52.3963L116.327 48.5165C115.679 48.4307 115.092 48.091 114.694 47.5721C114.296 47.0531 114.121 46.3974 114.207 45.7493ZM115.681 53.4043C115.033 53.3185 114.377 53.4938 113.858 53.8914C113.339 54.2891 112.999 54.8767 112.914 55.5248C112.828 56.173 113.003 56.8287 113.401 57.3476C113.798 57.8666 114.386 58.2063 115.034 58.2921L144.361 62.1719C145.009 62.2576 145.665 62.0824 146.184 61.6847C146.703 61.287 147.042 60.6994 147.128 60.0513C147.214 59.4031 147.039 58.7474 146.641 58.2285C146.243 57.7095 145.656 57.3698 145.007 57.2841L115.681 53.4043ZM114.387 63.1798C113.739 63.0941 113.084 63.2693 112.565 63.667C112.046 64.0647 111.706 64.6522 111.62 65.3004C111.535 65.9486 111.71 66.6042 112.107 67.1232C112.505 67.6422 113.093 67.9819 113.741 68.0676L128.404 70.0075C129.052 70.0933 129.708 69.918 130.227 69.5203C130.746 69.1227 131.086 68.5351 131.171 67.8869C131.257 67.2388 131.082 66.5831 130.684 66.0642C130.287 65.5452 129.699 65.2055 129.051 65.1197L114.387 63.1798Z" fill="#185ABD"/>
<path d="M104.897 22.1377C105.24 19.545 106.599 17.1948 108.675 15.6041C110.751 14.0133 113.373 13.3124 115.966 13.6554L155.068 18.8284C157.661 19.1714 160.011 20.5303 161.602 22.6061C163.193 24.6819 163.894 27.3046 163.551 29.8973L155.791 88.5507C155.448 91.1433 154.089 93.4935 152.013 95.0843C149.938 96.675 147.315 97.376 144.722 97.033L105.62 91.8599C103.027 91.5169 100.677 90.158 99.0863 88.0822C97.4956 86.0064 96.7946 83.3837 97.1376 80.7911L104.897 22.1377ZM154.422 23.7162L115.319 18.5432C114.023 18.3717 112.712 18.7221 111.674 19.5175C110.636 20.3129 109.956 21.488 109.785 22.7843L102.025 81.4377C101.854 82.734 102.204 84.0454 103 85.0833C103.795 86.1212 104.97 86.8006 106.267 86.9721L145.369 92.1452C146.665 92.3167 147.976 91.9662 149.014 91.1708C150.052 90.3755 150.732 89.2004 150.903 87.904L158.663 29.2506C158.834 27.9543 158.484 26.643 157.688 25.6051C156.893 24.5672 155.718 23.8877 154.422 23.7162Z" fill="#185ABD"/>
<g clip-path="url(#clip1_1_8)">
<path d="M223.801 71.3464L204.584 107.858C203.512 109.897 201.673 111.426 199.472 112.108C197.272 112.791 194.891 112.572 192.852 111.499L162.106 95.3167C160.067 94.2437 158.538 92.4048 157.855 90.2046C157.172 88.0044 157.392 85.623 158.465 83.5844L182.738 37.4645C183.811 35.4259 185.65 33.897 187.85 33.2141C190.05 32.5313 192.432 32.7505 194.47 33.8234L215.609 44.9488L223.801 71.3464ZM212.271 65.278C210.742 64.4733 209.595 63.0942 209.083 61.444C208.571 59.7938 208.736 58.0078 209.54 56.4788L213.586 48.7922L192.448 37.6668C191.428 37.1303 190.238 37.0207 189.137 37.3621C188.037 37.7035 187.118 38.468 186.581 39.4873L162.308 85.6072C161.771 86.6265 161.662 87.8172 162.003 88.9173C162.345 90.0174 163.109 90.9368 164.128 91.4733L194.875 107.656C195.894 108.192 197.085 108.302 198.185 107.96C199.285 107.619 200.205 106.855 200.741 105.835L219.958 69.3236L212.271 65.278Z" fill="#E8B931"/>
<path d="M171.107 82.8764C171.375 82.3668 171.835 81.9845 172.385 81.8138C172.935 81.6431 173.53 81.6979 174.04 81.9662L185.57 88.0346C186.08 88.3028 186.462 88.7625 186.633 89.3126C186.803 89.8626 186.749 90.458 186.48 90.9676C186.212 91.4773 185.752 91.8595 185.202 92.0302C184.652 92.2009 184.057 92.1461 183.547 91.8779L172.017 85.8095C171.508 85.5412 171.125 85.0815 170.955 84.5315C170.784 83.9814 170.839 83.3861 171.107 82.8764ZM175.153 75.1898C175.421 74.6801 175.881 74.2979 176.431 74.1272C176.981 73.9565 177.576 74.0113 178.086 74.2795L201.146 86.4163C201.655 86.6845 202.038 87.1443 202.208 87.6943C202.379 88.2444 202.324 88.8397 202.056 89.3494C201.788 89.859 201.328 90.2413 200.778 90.412C200.228 90.5827 199.633 90.5279 199.123 90.2596L176.063 78.1228C175.553 77.8546 175.171 77.3949 175 76.8448C174.83 76.2948 174.884 75.6994 175.153 75.1898ZM188.952 64.2541L192.272 70.3496L203.15 66.9705C203.368 66.9025 203.601 66.905 203.818 66.9775C204.034 67.05 204.222 67.1889 204.355 67.3745L209.641 74.9369L206.102 81.6627C205.833 82.1724 205.374 82.5546 204.824 82.7253C204.273 82.896 203.678 82.8412 203.168 82.573L180.109 70.4362C179.599 70.1679 179.217 69.7082 179.046 69.1582C178.875 68.6081 178.93 68.0128 179.198 67.5031L180.21 65.5815C180.21 65.5815 188.705 63.8002 188.952 64.2541ZM190.981 61.4347C191.746 61.8371 192.639 61.9193 193.464 61.6632C194.289 61.4071 194.978 60.8338 195.381 60.0693C195.783 59.3048 195.865 58.4118 195.609 57.5867C195.353 56.7616 194.78 56.0721 194.015 55.6697C193.251 55.2674 192.358 55.1852 191.533 55.4412C190.708 55.6973 190.018 56.2706 189.616 57.0351C189.213 57.7996 189.131 58.6926 189.387 59.5177C189.643 60.3428 190.217 61.0323 190.981 61.4347V61.4347Z" fill="#E8B931"/>
</g>
<path d="M213.5 172.407V90.8388C213.5 89.1304 212.115 87.7454 210.407 87.7454H150.351C148.227 87.7454 146.256 86.6396 145.15 84.8269L133.645 65.9816C133.084 65.0614 132.083 64.5 131.005 64.5H70.5934C68.885 64.5 67.5 65.885 67.5 67.5934V172.407C67.5 174.115 68.885 175.5 70.5934 175.5H210.407C212.115 175.5 213.5 174.115 213.5 172.407Z" fill="url(#paint0_linear_1_8)" stroke="url(#paint1_linear_1_8)" stroke-width="3"/>
<defs>
<filter id="filter0_d_1_8" x="51.8168" y="70.1532" width="147.057" height="111.237" filterUnits="userSpaceOnUse" color-interpolation-filters="sRGB">
<feFlood flood-opacity="0" result="BackgroundImageFix"/>
<feColorMatrix in="SourceAlpha" type="matrix" values="0 0 0 0 0 0 0 0 0 0 0 0 0 0 0 0 0 0 127 0" result="hardAlpha"/>
<feOffset dx="1.76604" dy="1.76604"/>
<feGaussianBlur stdDeviation="1.76604"/>
<feComposite in2="hardAlpha" operator="out"/>
<feColorMatrix type="matrix" values="0 0 0 0 0 0 0 0 0 0 0 0 0 0 0 0 0 0 0.25 0"/>
<feBlend mode="normal" in2="BackgroundImageFix" result="effect1_dropShadow_1_8"/>
<feBlend mode="normal" in="SourceGraphic" in2="effect1_dropShadow_1_8" result="shape"/>
</filter>
<linearGradient id="paint0_linear_1_8" x1="140" y1="71" x2="219.676" y2="135.961" gradientUnits="userSpaceOnUse">
<stop stop-color="white"/>
<stop offset="1" stop-color="#DEDEDE"/>
</linearGradient>
<linearGradient id="paint1_linear_1_8" x1="204.775" y1="84.2353" x2="323.16" y2="341.435" gradientUnits="userSpaceOnUse">
<stop stop-color="white" stop-opacity="0.6"/>
<stop offset="1" stop-color="#928C87"/>
</linearGradient>
<clipPath id="clip0_1_8">
<rect width="86.8628" height="86.8628" fill="white" transform="translate(0 54.6768) rotate(-32.5043)"/>
</clipPath>
<clipPath id="clip1_1_8">
<rect width="86.8628" height="86.8628" fill="white" transform="translate(175.456 14) rotate(27.7585)"/>
</clipPath>
</defs>
</svg>
