<svg width="24" height="24" viewBox="0 0 24 24" fill="none" xmlns="http://www.w3.org/2000/svg">
<path d="M21.95 12.4999V4.1874C21.95 3.26923 21.2057 2.5249 20.2875 2.5249H3.6625C2.74433 2.5249 2 3.26923 2 4.1874V20.8124C2 21.7306 2.74433 22.4749 3.6625 22.4749H11.975" stroke="#767676" stroke-width="1.25" stroke-linecap="round" stroke-linejoin="round"/>
<path d="M16.4085 20.2584C18.2448 20.2584 19.7335 18.7697 19.7335 16.9334C19.7335 15.0971 18.2448 13.6084 16.4085 13.6084C14.5721 13.6084 13.0835 15.0971 13.0835 16.9334C13.0835 18.7697 14.5721 20.2584 16.4085 20.2584Z" stroke="#767676" stroke-width="1.25"/>
<path d="M19.1792 19.1499L21.95 21.3666" stroke="#767676" stroke-width="1.25" stroke-linecap="round" stroke-linejoin="round"/>
<path d="M6.43311 8.06665H17.5164" stroke="#767676" stroke-width="1.25" stroke-linecap="round" stroke-linejoin="round"/>
<path d="M6.43311 12.5H10.8664" stroke="#767676" stroke-width="1.25" stroke-linecap="round" stroke-linejoin="round"/>
</svg>
