<svg width="24" height="24" viewBox="0 0 24 24" fill="none" xmlns="http://www.w3.org/2000/svg">
<path d="M4 11.5235C4 9.91761 4 9.11468 4.32461 8.40891C4.64922 7.70313 5.25885 7.1806 6.4781 6.13552L7.66082 5.12176C9.8646 3.23281 10.9665 2.28833 12.279 2.28833C13.5916 2.28833 14.6935 3.23281 16.8973 5.12176L18.08 6.13552C19.2992 7.1806 19.9089 7.70313 20.2335 8.40891C20.5581 9.11468 20.5581 9.91761 20.5581 11.5235V16.5386C20.5581 18.7688 20.5581 19.8839 19.8653 20.5767C19.1724 21.2695 18.0574 21.2695 15.8272 21.2695H8.73088C6.50072 21.2695 5.38564 21.2695 4.69282 20.5767C4 19.8839 4 18.7688 4 16.5386V11.5235Z" stroke="#767676" stroke-width="1.25"/>
<path d="M15.2356 21.2699V15.3563C15.2356 14.7031 14.7061 14.1736 14.0529 14.1736H10.5047C9.85154 14.1736 9.32202 14.7031 9.32202 15.3563V21.2699" stroke="#767676" stroke-width="1.25" stroke-linecap="round" stroke-linejoin="round"/>
</svg>
