<svg width="25" height="24" viewBox="0 0 25 24" fill="none" xmlns="http://www.w3.org/2000/svg">
<path fill-rule="evenodd" clip-rule="evenodd" d="M16.9756 2.74979H8.32361C5.31161 2.74979 3.42261 4.88379 3.42261 7.90379V16.0498C3.42261 19.0698 5.30361 21.2038 8.32361 21.2038H16.9706C19.9956 21.2038 21.8756 19.0698 21.8756 16.0498V7.90379C21.8796 4.88379 19.9986 2.74979 16.9756 2.74979Z" stroke="#373737" stroke-width="1.5" stroke-linecap="round" stroke-linejoin="round"/>
<path fill-rule="evenodd" clip-rule="evenodd" d="M11.376 8.785C11.376 9.805 10.55 10.631 9.52996 10.631C8.51096 10.631 7.68396 9.805 7.68396 8.785C7.68396 7.765 8.51096 6.939 9.52996 6.939C10.549 6.94 11.375 7.766 11.376 8.785Z" stroke="#373737" stroke-width="1.5" stroke-linecap="round" stroke-linejoin="round"/>
<path d="M21.8799 14.951C20.9569 14.001 19.1819 12.082 17.2519 12.082C15.3209 12.082 14.2079 16.315 12.3509 16.315C10.4939 16.315 8.80685 14.401 7.31885 15.628C5.83085 16.854 4.42285 19.361 4.42285 19.361" stroke="#373737" stroke-width="1.5" stroke-linecap="round" stroke-linejoin="round"/>
</svg>
