<svg width="30" height="30" viewBox="0 0 30 30" fill="none" xmlns="http://www.w3.org/2000/svg">
<path d="M24 9.75V24C24 24.7956 23.6839 25.5587 23.1213 26.1213C22.5587 26.6839 21.7956 27 21 27H9C8.20435 27 7.44129 26.6839 6.87868 26.1213C6.31607 25.5587 6 24.7956 6 24V6C6 5.20435 6.31607 4.44129 6.87868 3.87868C7.44129 3.31607 8.20435 3 9 3H17.25L24 9.75ZM19.5 9.75C18.9033 9.75 18.331 9.51295 17.909 9.09099C17.4871 8.66903 17.25 8.09674 17.25 7.5V4.5H9C8.60218 4.5 8.22064 4.65804 7.93934 4.93934C7.65804 5.22064 7.5 5.60218 7.5 6V24C7.5 24.3978 7.65804 24.7794 7.93934 25.0607C8.22064 25.342 8.60218 25.5 9 25.5H21C21.3978 25.5 21.7794 25.342 22.0607 25.0607C22.342 24.7794 22.5 24.3978 22.5 24V9.75H19.5Z" fill="#E8B931"/>
<path d="M9.75 21.75C9.75 21.5511 9.82902 21.3603 9.96967 21.2197C10.1103 21.079 10.3011 21 10.5 21H15C15.1989 21 15.3897 21.079 15.5303 21.2197C15.671 21.3603 15.75 21.5511 15.75 21.75C15.75 21.9489 15.671 22.1397 15.5303 22.2803C15.3897 22.421 15.1989 22.5 15 22.5H10.5C10.3011 22.5 10.1103 22.421 9.96967 22.2803C9.82902 22.1397 9.75 21.9489 9.75 21.75ZM9.75 18.75C9.75 18.5511 9.82902 18.3603 9.96967 18.2197C10.1103 18.079 10.3011 18 10.5 18H19.5C19.6989 18 19.8897 18.079 20.0303 18.2197C20.171 18.3603 20.25 18.5511 20.25 18.75C20.25 18.9489 20.171 19.1397 20.0303 19.2803C19.8897 19.421 19.6989 19.5 19.5 19.5H10.5C10.3011 19.5 10.1103 19.421 9.96967 19.2803C9.82902 19.1397 9.75 18.9489 9.75 18.75ZM12.2085 13.188L14.2035 14.517L16.9845 11.7345C17.0402 11.6787 17.112 11.6418 17.1898 11.6291C17.2677 11.6165 17.3475 11.6287 17.418 11.664L20.25 13.125V15.75C20.25 15.9489 20.171 16.1397 20.0303 16.2803C19.8897 16.421 19.6989 16.5 19.5 16.5H10.5C10.3011 16.5 10.1103 16.421 9.96967 16.2803C9.82902 16.1397 9.75 15.9489 9.75 15.75V15C9.75 15 12.06 13.089 12.2085 13.188ZM12.375 12C12.6734 12 12.9595 11.8815 13.1705 11.6705C13.3815 11.4595 13.5 11.1734 13.5 10.875C13.5 10.5766 13.3815 10.2905 13.1705 10.0795C12.9595 9.86853 12.6734 9.75 12.375 9.75C12.0766 9.75 11.7905 9.86853 11.5795 10.0795C11.3685 10.2905 11.25 10.5766 11.25 10.875C11.25 11.1734 11.3685 11.4595 11.5795 11.6705C11.7905 11.8815 12.0766 12 12.375 12Z" fill="#E8B931"/>
</svg>
