<svg width="370" height="42" viewBox="0 0 370 42" fill="none" xmlns="http://www.w3.org/2000/svg">
<path fill-rule="evenodd" clip-rule="evenodd" d="M24.8246 10.409C24.5 11.1147 24.5 11.9177 24.5 13.5235V18.5387C24.5 20.7689 24.5 21.8839 25.1928 22.5768C25.8743 23.2582 26.9643 23.2694 29.1221 23.2696V17.3562C29.1221 16.3164 29.965 15.4735 31.0048 15.4735H34.553C35.5928 15.4735 36.4357 16.3164 36.4357 17.3562V23.2696C38.5937 23.2694 39.6838 23.2583 40.3653 22.5768C41.0581 21.8839 41.0581 20.7689 41.0581 18.5387V13.5235C41.0581 11.9177 41.0581 11.1147 40.7335 10.409C40.4089 9.70319 39.7992 9.18066 38.58 8.13559L37.3973 7.12183C35.1935 5.23287 34.0916 4.28839 32.779 4.28839C31.4665 4.28839 30.3646 5.23287 28.1608 7.12183L26.9781 8.13559C25.7588 9.18066 25.1492 9.70319 24.8246 10.409ZM35.0357 23.2696V17.3562C35.0357 17.0896 34.8196 16.8735 34.553 16.8735H31.0048C30.7382 16.8735 30.5221 17.0896 30.5221 17.3562V23.2696H35.0357Z" fill="#C62B6D"/>
<path d="M17.2059 38V29.36H18.2739V33.17H22.8219V29.36H23.8899V38H22.8219V34.184H18.2739V38H17.2059ZM28.093 38.18C27.449 38.18 26.893 38.034 26.425 37.742C25.961 37.45 25.603 37.046 25.351 36.53C25.099 36.014 24.973 35.422 24.973 34.754C24.973 34.074 25.101 33.478 25.357 32.966C25.613 32.454 25.975 32.056 26.443 31.772C26.911 31.484 27.461 31.34 28.093 31.34C28.741 31.34 29.299 31.486 29.767 31.778C30.235 32.066 30.593 32.468 30.841 32.984C31.093 33.496 31.219 34.086 31.219 34.754C31.219 35.43 31.093 36.026 30.841 36.542C30.589 37.054 30.229 37.456 29.761 37.748C29.293 38.036 28.737 38.18 28.093 38.18ZM28.093 37.166C28.765 37.166 29.265 36.942 29.593 36.494C29.921 36.046 30.085 35.466 30.085 34.754C30.085 34.022 29.919 33.44 29.587 33.008C29.255 32.572 28.757 32.354 28.093 32.354C27.641 32.354 27.269 32.456 26.977 32.66C26.685 32.864 26.467 33.146 26.323 33.506C26.179 33.866 26.107 34.282 26.107 34.754C26.107 35.482 26.275 36.066 26.611 36.506C26.947 36.946 27.441 37.166 28.093 37.166ZM40.0461 38L40.0521 33.854C40.0521 33.37 39.9221 32.992 39.6621 32.72C39.4061 32.444 39.0721 32.306 38.6601 32.306C38.4201 32.306 38.1921 32.362 37.9761 32.474C37.7601 32.582 37.5841 32.754 37.4481 32.99C37.3121 33.222 37.2441 33.52 37.2441 33.884L36.6801 33.656C36.6721 33.196 36.7661 32.794 36.9621 32.45C37.1621 32.102 37.4341 31.832 37.7781 31.64C38.1221 31.448 38.5101 31.352 38.9421 31.352C39.6181 31.352 40.1501 31.558 40.5381 31.97C40.9261 32.378 41.1201 32.928 41.1201 33.62L41.1141 38H40.0461ZM32.2941 38V31.52H33.2481V33.254H33.3681V38H32.2941ZM36.1761 38L36.1821 33.896C36.1821 33.4 36.0541 33.012 35.7981 32.732C35.5421 32.448 35.2021 32.306 34.7781 32.306C34.3581 32.306 34.0181 32.45 33.7581 32.738C33.4981 33.026 33.3681 33.408 33.3681 33.884L32.8041 33.548C32.8041 33.128 32.9041 32.752 33.1041 32.42C33.3041 32.088 33.5761 31.828 33.9201 31.64C34.2641 31.448 34.6541 31.352 35.0901 31.352C35.5261 31.352 35.9061 31.444 36.2301 31.628C36.5541 31.812 36.8041 32.076 36.9801 32.42C37.1561 32.76 37.2441 33.166 37.2441 33.638L37.2381 38H36.1761ZM45.1923 38.18C44.5563 38.18 44.0003 38.04 43.5243 37.76C43.0523 37.476 42.6843 37.082 42.4203 36.578C42.1563 36.07 42.0243 35.478 42.0243 34.802C42.0243 34.094 42.1543 33.482 42.4143 32.966C42.6743 32.446 43.0363 32.046 43.5003 31.766C43.9683 31.482 44.5163 31.34 45.1443 31.34C45.7963 31.34 46.3503 31.49 46.8063 31.79C47.2663 32.09 47.6103 32.518 47.8383 33.074C48.0703 33.63 48.1703 34.292 48.1383 35.06H47.0583V34.676C47.0463 33.88 46.8843 33.286 46.5723 32.894C46.2603 32.498 45.7963 32.3 45.1803 32.3C44.5203 32.3 44.0183 32.512 43.6743 32.936C43.3303 33.36 43.1583 33.968 43.1583 34.76C43.1583 35.524 43.3303 36.116 43.6743 36.536C44.0183 36.956 44.5083 37.166 45.1443 37.166C45.5723 37.166 45.9443 37.068 46.2603 36.872C46.5763 36.676 46.8243 36.394 47.0043 36.026L48.0303 36.38C47.7783 36.952 47.3983 37.396 46.8903 37.712C46.3863 38.024 45.8203 38.18 45.1923 38.18ZM42.7983 35.06V34.202H47.5863V35.06H42.7983Z" fill="#C62B6D"/>
<g opacity="0.8">
<path d="M99.9578 7.12033L100.515 7.40407L99.9578 7.12033ZM100.575 23.3516L100.134 22.9097L100.134 22.9097L100.575 23.3516ZM118.207 19.7693L118.491 20.3262H118.491L118.207 19.7693ZM120.042 17.9338L119.485 17.6501V17.6501L120.042 17.9338ZM120.042 7.12033L119.485 7.40407V7.40407L120.042 7.12033ZM118.207 5.28486L118.491 4.72798V4.72798L118.207 5.28486ZM101.793 5.28486L102.077 5.84174L101.793 5.28486ZM103.7 20.2271L103.258 19.7852L103.7 20.2271ZM100.125 11.5471C100.125 10.3607 100.125 9.50844 100.18 8.83943C100.234 8.17772 100.338 7.75049 100.515 7.40407L99.4009 6.83658C99.1196 7.38859 98.9947 7.99863 98.9343 8.73764C98.8745 9.46935 98.875 10.3813 98.875 11.5471H100.125ZM100.125 13.2271V11.5471H98.875V13.2271H100.125ZM98.875 13.2271V20.2271H100.125V13.2271H98.875ZM98.875 20.2271V20.2271H100.125V20.2271H98.875ZM98.875 20.2271V22.9061H100.125V20.2271H98.875ZM98.875 22.9061C98.875 24.0242 100.227 24.5842 101.017 23.7936L100.134 22.9097C100.129 22.9143 100.127 22.9149 100.129 22.9141C100.13 22.9135 100.132 22.9128 100.133 22.9125C100.136 22.9121 100.134 22.9131 100.128 22.9108C100.123 22.9084 100.122 22.9061 100.123 22.9083C100.124 22.9097 100.125 22.9114 100.125 22.9128C100.126 22.9144 100.125 22.9127 100.125 22.9061H98.875ZM101.017 23.7936L104.142 20.669L103.258 19.7852L100.134 22.9097L101.017 23.7936ZM113.78 19.6021H103.7V20.8521H113.78V19.6021ZM117.923 19.2124C117.577 19.3889 117.149 19.4929 116.488 19.5469C115.819 19.6016 114.966 19.6021 113.78 19.6021V20.8521C114.946 20.8521 115.858 20.8526 116.589 20.7928C117.328 20.7324 117.938 20.6075 118.491 20.3262L117.923 19.2124ZM119.485 17.6501C119.143 18.3228 118.596 18.8697 117.923 19.2124L118.491 20.3262C119.398 19.8636 120.137 19.1255 120.599 18.2176L119.485 17.6501ZM119.875 13.5071C119.875 14.6935 119.875 15.5457 119.82 16.2147C119.766 16.8765 119.662 17.3037 119.485 17.6501L120.599 18.2176C120.88 17.6656 121.005 17.0555 121.066 16.3165C121.125 15.5848 121.125 14.6729 121.125 13.5071H119.875ZM119.875 11.5471V13.5071H121.125V11.5471H119.875ZM119.485 7.40407C119.662 7.75049 119.766 8.17772 119.82 8.83943C119.875 9.50843 119.875 10.3607 119.875 11.5471H121.125C121.125 10.3813 121.125 9.46935 121.066 8.73764C121.005 7.99863 120.88 7.38859 120.599 6.83658L119.485 7.40407ZM117.923 5.84174C118.596 6.18449 119.143 6.73139 119.485 7.40407L120.599 6.83658C120.137 5.9287 119.398 5.19057 118.491 4.72798L117.923 5.84174ZM113.78 5.45209C114.966 5.45209 115.819 5.45257 116.488 5.50723C117.149 5.5613 117.577 5.66523 117.923 5.84174L118.491 4.72798C117.938 4.44672 117.328 4.32176 116.589 4.26138C115.858 4.2016 114.946 4.20209 113.78 4.20209V5.45209ZM106.22 5.45209H113.78V4.20209H106.22V5.45209ZM102.077 5.84174C102.423 5.66523 102.851 5.5613 103.512 5.50723C104.181 5.45257 105.034 5.45209 106.22 5.45209V4.20209C105.054 4.20209 104.142 4.2016 103.411 4.26138C102.672 4.32176 102.062 4.44672 101.509 4.72798L102.077 5.84174ZM100.515 7.40407C100.857 6.73139 101.404 6.18449 102.077 5.84174L101.509 4.72798C100.602 5.19057 99.8635 5.9287 99.4009 6.83658L100.515 7.40407ZM104.325 20.2271C104.325 20.5429 104.074 20.8521 103.7 20.8521V19.6021C103.326 19.6021 103.075 19.9113 103.075 20.2271H104.325ZM104.142 20.669C104.255 20.556 104.325 20.3986 104.325 20.2271H103.075C103.075 20.0556 103.145 19.8982 103.258 19.7852L104.142 20.669Z" fill="#757575"/>
<path d="M104.6 10.4271L114.4 10.4271" stroke="#757575" stroke-width="1.25" stroke-linecap="round" stroke-linejoin="round"/>
<path d="M104.6 14.6271L111.6 14.6271" stroke="#757575" stroke-width="1.25" stroke-linecap="round" stroke-linejoin="round"/>
<path d="M90.4385 38L93.3305 29.36H94.8185L97.7105 38H96.6005L93.8945 29.984H94.2305L91.5485 38H90.4385ZM91.8305 35.978V34.976H96.3185V35.978H91.8305ZM100.993 38.174C100.221 38.174 99.5866 38.006 99.0906 37.67C98.5986 37.33 98.2966 36.856 98.1846 36.248L99.2766 36.074C99.3646 36.426 99.5666 36.706 99.8826 36.914C100.199 37.118 100.591 37.22 101.059 37.22C101.503 37.22 101.851 37.128 102.103 36.944C102.355 36.76 102.481 36.51 102.481 36.194C102.481 36.01 102.439 35.862 102.355 35.75C102.271 35.634 102.097 35.526 101.833 35.426C101.573 35.326 101.179 35.206 100.651 35.066C100.079 34.914 99.6286 34.756 99.3006 34.592C98.9726 34.428 98.7386 34.238 98.5986 34.022C98.4586 33.806 98.3886 33.544 98.3886 33.236C98.3886 32.856 98.4926 32.524 98.7006 32.24C98.9086 31.952 99.1986 31.73 99.5706 31.574C99.9466 31.418 100.383 31.34 100.879 31.34C101.371 31.34 101.811 31.418 102.199 31.574C102.587 31.73 102.899 31.952 103.135 32.24C103.375 32.524 103.517 32.856 103.561 33.236L102.469 33.434C102.417 33.086 102.249 32.812 101.965 32.612C101.685 32.412 101.323 32.306 100.879 32.294C100.459 32.278 100.117 32.352 99.8526 32.516C99.5926 32.68 99.4626 32.902 99.4626 33.182C99.4626 33.338 99.5106 33.472 99.6066 33.584C99.7066 33.696 99.8886 33.802 100.153 33.902C100.421 34.002 100.809 34.116 101.317 34.244C101.889 34.388 102.339 34.546 102.667 34.718C102.999 34.886 103.235 35.086 103.375 35.318C103.515 35.546 103.585 35.828 103.585 36.164C103.585 36.788 103.355 37.28 102.895 37.64C102.435 37.996 101.801 38.174 100.993 38.174ZM104.662 38L104.668 29.36H105.748V34.64L108.466 31.52H109.852L106.99 34.76L110.188 38H108.694L105.748 34.88V38H104.662ZM120.453 38L120.459 33.854C120.459 33.37 120.329 32.992 120.069 32.72C119.813 32.444 119.479 32.306 119.067 32.306C118.827 32.306 118.599 32.362 118.383 32.474C118.167 32.582 117.991 32.754 117.855 32.99C117.719 33.222 117.651 33.52 117.651 33.884L117.087 33.656C117.079 33.196 117.173 32.794 117.369 32.45C117.569 32.102 117.841 31.832 118.185 31.64C118.529 31.448 118.917 31.352 119.349 31.352C120.025 31.352 120.557 31.558 120.945 31.97C121.333 32.378 121.527 32.928 121.527 33.62L121.521 38H120.453ZM112.701 38V31.52H113.655V33.254H113.775V38H112.701ZM116.583 38L116.589 33.896C116.589 33.4 116.461 33.012 116.205 32.732C115.949 32.448 115.609 32.306 115.185 32.306C114.765 32.306 114.425 32.45 114.165 32.738C113.905 33.026 113.775 33.408 113.775 33.884L113.211 33.548C113.211 33.128 113.311 32.752 113.511 32.42C113.711 32.088 113.983 31.828 114.327 31.64C114.671 31.448 115.061 31.352 115.497 31.352C115.933 31.352 116.313 31.444 116.637 31.628C116.961 31.812 117.211 32.076 117.387 32.42C117.563 32.76 117.651 33.166 117.651 33.638L117.645 38H116.583ZM125.6 38.18C124.964 38.18 124.408 38.04 123.932 37.76C123.46 37.476 123.092 37.082 122.828 36.578C122.564 36.07 122.432 35.478 122.432 34.802C122.432 34.094 122.562 33.482 122.822 32.966C123.082 32.446 123.444 32.046 123.908 31.766C124.376 31.482 124.924 31.34 125.552 31.34C126.204 31.34 126.758 31.49 127.214 31.79C127.674 32.09 128.018 32.518 128.246 33.074C128.478 33.63 128.578 34.292 128.546 35.06H127.466V34.676C127.454 33.88 127.292 33.286 126.98 32.894C126.668 32.498 126.204 32.3 125.588 32.3C124.928 32.3 124.426 32.512 124.082 32.936C123.738 33.36 123.566 33.968 123.566 34.76C123.566 35.524 123.738 36.116 124.082 36.536C124.426 36.956 124.916 37.166 125.552 37.166C125.98 37.166 126.352 37.068 126.668 36.872C126.984 36.676 127.232 36.394 127.412 36.026L128.438 36.38C128.186 36.952 127.806 37.396 127.298 37.712C126.794 38.024 126.228 38.18 125.6 38.18ZM123.206 35.06V34.202H127.994V35.06H123.206Z" fill="#757575"/>
</g>
<path d="M192.5 18.9749C194.746 18.7194 196.5 16.5489 196.5 13.9091C196.5 10.8462 194.043 8.4373 191.417 8.8704C191.414 8.87079 191.412 8.86952 191.411 8.86732C190.407 6.57412 188.336 5 185.944 5C182.758 5 180.141 7.79337 179.859 11.3589C179.858 11.3616 179.856 11.3637 179.853 11.3637C178.029 11.3592 176.5 13.0859 176.5 15.1818C176.5 17.2905 177.992 19 179.833 19H180.5" stroke="#334998" stroke-width="1.25" stroke-linecap="round"/>
<path d="M183.125 19.3468L186.123 16.1993C186.226 16.0908 186.399 16.0908 186.502 16.1993L189.5 19.3468" stroke="#334998" stroke-width="1.25" stroke-linecap="round"/>
<path d="M186.468 17.3712L186.468 23.3712" stroke="#334998" stroke-width="1.25" stroke-linecap="round"/>
<path d="M171.426 38.18C170.758 38.18 170.168 38.042 169.656 37.766C169.144 37.49 168.742 37.104 168.45 36.608C168.162 36.108 168.018 35.522 168.018 34.85V29.366L169.098 29.36V34.76C169.098 35.168 169.166 35.524 169.302 35.828C169.442 36.128 169.626 36.378 169.854 36.578C170.082 36.778 170.332 36.928 170.604 37.028C170.88 37.124 171.154 37.172 171.426 37.172C171.702 37.172 171.978 37.122 172.254 37.022C172.53 36.922 172.78 36.774 173.004 36.578C173.232 36.378 173.414 36.126 173.55 35.822C173.686 35.518 173.754 35.164 173.754 34.76V29.36H174.834V34.85C174.834 35.518 174.688 36.102 174.396 36.602C174.108 37.102 173.708 37.49 173.196 37.766C172.684 38.042 172.094 38.18 171.426 38.18ZM179.25 38.18C178.642 38.18 178.13 38.03 177.714 37.73C177.298 37.426 176.982 37.016 176.766 36.5C176.554 35.98 176.448 35.398 176.448 34.754C176.448 34.102 176.554 33.518 176.766 33.002C176.982 32.486 177.298 32.08 177.714 31.784C178.134 31.488 178.648 31.34 179.256 31.34C179.856 31.34 180.372 31.49 180.804 31.79C181.24 32.086 181.574 32.492 181.806 33.008C182.038 33.524 182.154 34.106 182.154 34.754C182.154 35.402 182.038 35.984 181.806 36.5C181.574 37.016 181.24 37.426 180.804 37.73C180.372 38.03 179.854 38.18 179.25 38.18ZM176.268 40.88V31.52H177.222V36.29H177.342V40.88H176.268ZM179.118 37.202C179.546 37.202 179.9 37.094 180.18 36.878C180.46 36.662 180.67 36.37 180.81 36.002C180.95 35.63 181.02 35.214 181.02 34.754C181.02 34.298 180.95 33.886 180.81 33.518C180.674 33.15 180.462 32.858 180.174 32.642C179.89 32.426 179.528 32.318 179.088 32.318C178.668 32.318 178.32 32.422 178.044 32.63C177.768 32.834 177.562 33.12 177.426 33.488C177.29 33.852 177.222 34.274 177.222 34.754C177.222 35.226 177.288 35.648 177.42 36.02C177.556 36.388 177.764 36.678 178.044 36.89C178.324 37.098 178.682 37.202 179.118 37.202ZM183.35 38V29.18H184.418V38H183.35ZM188.738 38.18C188.094 38.18 187.538 38.034 187.07 37.742C186.606 37.45 186.248 37.046 185.996 36.53C185.744 36.014 185.618 35.422 185.618 34.754C185.618 34.074 185.746 33.478 186.002 32.966C186.258 32.454 186.62 32.056 187.088 31.772C187.556 31.484 188.106 31.34 188.738 31.34C189.386 31.34 189.944 31.486 190.412 31.778C190.88 32.066 191.238 32.468 191.486 32.984C191.738 33.496 191.864 34.086 191.864 34.754C191.864 35.43 191.738 36.026 191.486 36.542C191.234 37.054 190.874 37.456 190.406 37.748C189.938 38.036 189.382 38.18 188.738 38.18ZM188.738 37.166C189.41 37.166 189.91 36.942 190.238 36.494C190.566 36.046 190.73 35.466 190.73 34.754C190.73 34.022 190.564 33.44 190.232 33.008C189.9 32.572 189.402 32.354 188.738 32.354C188.286 32.354 187.914 32.456 187.622 32.66C187.33 32.864 187.112 33.146 186.968 33.506C186.824 33.866 186.752 34.282 186.752 34.754C186.752 35.482 186.92 36.066 187.256 36.506C187.592 36.946 188.086 37.166 188.738 37.166ZM194.787 38.18C194.303 38.18 193.897 38.092 193.569 37.916C193.245 37.736 192.999 37.5 192.831 37.208C192.667 36.916 192.585 36.596 192.585 36.248C192.585 35.908 192.649 35.614 192.777 35.366C192.909 35.114 193.093 34.906 193.329 34.742C193.565 34.574 193.847 34.442 194.175 34.346C194.483 34.262 194.827 34.19 195.207 34.13C195.591 34.066 195.979 34.008 196.371 33.956C196.763 33.904 197.129 33.854 197.469 33.806L197.085 34.028C197.097 33.452 196.981 33.026 196.737 32.75C196.497 32.474 196.081 32.336 195.489 32.336C195.097 32.336 194.753 32.426 194.457 32.606C194.165 32.782 193.959 33.07 193.839 33.47L192.825 33.164C192.981 32.596 193.283 32.15 193.731 31.826C194.179 31.502 194.769 31.34 195.501 31.34C196.089 31.34 196.593 31.446 197.013 31.658C197.437 31.866 197.741 32.182 197.925 32.606C198.017 32.806 198.075 33.024 198.099 33.26C198.123 33.492 198.135 33.736 198.135 33.992V38H197.187V36.446L197.409 36.59C197.165 37.114 196.823 37.51 196.383 37.778C195.947 38.046 195.415 38.18 194.787 38.18ZM194.949 37.286C195.333 37.286 195.665 37.218 195.945 37.082C196.229 36.942 196.457 36.76 196.629 36.536C196.801 36.308 196.913 36.06 196.965 35.792C197.025 35.592 197.057 35.37 197.061 35.126C197.069 34.878 197.073 34.688 197.073 34.556L197.445 34.718C197.097 34.766 196.755 34.812 196.419 34.856C196.083 34.9 195.765 34.948 195.465 35C195.165 35.048 194.895 35.106 194.655 35.174C194.479 35.23 194.313 35.302 194.157 35.39C194.005 35.478 193.881 35.592 193.785 35.732C193.693 35.868 193.647 36.038 193.647 36.242C193.647 36.418 193.691 36.586 193.779 36.746C193.871 36.906 194.011 37.036 194.199 37.136C194.391 37.236 194.641 37.286 194.949 37.286ZM201.999 38.18C201.395 38.18 200.877 38.03 200.445 37.73C200.013 37.426 199.679 37.016 199.443 36.5C199.211 35.984 199.095 35.402 199.095 34.754C199.095 34.106 199.211 33.524 199.443 33.008C199.679 32.492 200.013 32.086 200.445 31.79C200.877 31.49 201.393 31.34 201.993 31.34C202.605 31.34 203.119 31.488 203.535 31.784C203.951 32.08 204.265 32.486 204.477 33.002C204.693 33.518 204.801 34.102 204.801 34.754C204.801 35.398 204.693 35.98 204.477 36.5C204.265 37.016 203.951 37.426 203.535 37.73C203.119 38.03 202.607 38.18 201.999 38.18ZM202.131 37.202C202.567 37.202 202.925 37.098 203.205 36.89C203.485 36.678 203.691 36.388 203.823 36.02C203.959 35.648 204.027 35.226 204.027 34.754C204.027 34.274 203.959 33.852 203.823 33.488C203.691 33.12 203.487 32.834 203.211 32.63C202.935 32.422 202.585 32.318 202.161 32.318C201.721 32.318 201.357 32.426 201.069 32.642C200.785 32.858 200.573 33.15 200.433 33.518C200.297 33.886 200.229 34.298 200.229 34.754C200.229 35.214 200.299 35.63 200.439 36.002C200.579 36.37 200.789 36.662 201.069 36.878C201.353 37.094 201.707 37.202 202.131 37.202ZM204.027 38V33.23H203.907V29.36H204.981V38H204.027Z" fill="#334998"/>
<g opacity="0.8">
<path d="M273.45 14.5V6.18752C273.45 5.26935 272.706 4.52502 271.788 4.52502H255.163C254.244 4.52502 253.5 5.26935 253.5 6.18752V22.8125C253.5 23.7307 254.244 24.475 255.163 24.475H263.475" stroke="#767676" stroke-width="1.25" stroke-linecap="round" stroke-linejoin="round"/>
<path d="M267.908 22.2583C269.745 22.2583 271.233 20.7697 271.233 18.9333C271.233 17.097 269.745 15.6083 267.908 15.6083C266.072 15.6083 264.583 17.097 264.583 18.9333C264.583 20.7697 266.072 22.2583 267.908 22.2583Z" stroke="#767676" stroke-width="1.25"/>
<path d="M270.679 21.15L273.45 23.3667" stroke="#767676" stroke-width="1.25" stroke-linecap="round" stroke-linejoin="round"/>
<path d="M257.933 10.0667H269.017" stroke="#767676" stroke-width="1.25" stroke-linecap="round" stroke-linejoin="round"/>
<path d="M257.933 14.5H262.367" stroke="#767676" stroke-width="1.25" stroke-linecap="round" stroke-linejoin="round"/>
<path d="M244.857 38V29.36H245.925V33.17H250.473V29.36H251.541V38H250.473V34.184H245.925V38H244.857ZM253.104 30.374V29.27H254.172V30.374H253.104ZM253.104 38V31.52H254.172V38H253.104ZM258.18 38.174C257.408 38.174 256.774 38.006 256.278 37.67C255.786 37.33 255.484 36.856 255.372 36.248L256.464 36.074C256.552 36.426 256.754 36.706 257.07 36.914C257.386 37.118 257.778 37.22 258.246 37.22C258.69 37.22 259.038 37.128 259.29 36.944C259.542 36.76 259.668 36.51 259.668 36.194C259.668 36.01 259.626 35.862 259.542 35.75C259.458 35.634 259.284 35.526 259.02 35.426C258.76 35.326 258.366 35.206 257.838 35.066C257.266 34.914 256.816 34.756 256.488 34.592C256.16 34.428 255.926 34.238 255.786 34.022C255.646 33.806 255.576 33.544 255.576 33.236C255.576 32.856 255.68 32.524 255.888 32.24C256.096 31.952 256.386 31.73 256.758 31.574C257.134 31.418 257.57 31.34 258.066 31.34C258.558 31.34 258.998 31.418 259.386 31.574C259.774 31.73 260.086 31.952 260.322 32.24C260.562 32.524 260.704 32.856 260.748 33.236L259.656 33.434C259.604 33.086 259.436 32.812 259.152 32.612C258.872 32.412 258.51 32.306 258.066 32.294C257.646 32.278 257.304 32.352 257.04 32.516C256.78 32.68 256.65 32.902 256.65 33.182C256.65 33.338 256.698 33.472 256.794 33.584C256.894 33.696 257.076 33.802 257.34 33.902C257.608 34.002 257.996 34.116 258.504 34.244C259.076 34.388 259.526 34.546 259.854 34.718C260.186 34.886 260.422 35.086 260.562 35.318C260.702 35.546 260.772 35.828 260.772 36.164C260.772 36.788 260.542 37.28 260.082 37.64C259.622 37.996 258.988 38.174 258.18 38.174ZM265.474 38C265.09 38.076 264.71 38.106 264.334 38.09C263.962 38.078 263.63 38.004 263.338 37.868C263.046 37.728 262.824 37.512 262.672 37.22C262.544 36.964 262.474 36.706 262.462 36.446C262.454 36.182 262.45 35.884 262.45 35.552V29.72H263.518V35.504C263.518 35.768 263.52 35.994 263.524 36.182C263.532 36.37 263.574 36.532 263.65 36.668C263.794 36.924 264.022 37.074 264.334 37.118C264.65 37.162 265.03 37.15 265.474 37.082V38ZM261.136 32.402V31.52H265.474V32.402H261.136ZM269.04 38.18C268.396 38.18 267.84 38.034 267.372 37.742C266.908 37.45 266.55 37.046 266.298 36.53C266.046 36.014 265.92 35.422 265.92 34.754C265.92 34.074 266.048 33.478 266.304 32.966C266.56 32.454 266.922 32.056 267.39 31.772C267.858 31.484 268.408 31.34 269.04 31.34C269.688 31.34 270.246 31.486 270.714 31.778C271.182 32.066 271.54 32.468 271.788 32.984C272.04 33.496 272.166 34.086 272.166 34.754C272.166 35.43 272.04 36.026 271.788 36.542C271.536 37.054 271.176 37.456 270.708 37.748C270.24 38.036 269.684 38.18 269.04 38.18ZM269.04 37.166C269.712 37.166 270.212 36.942 270.54 36.494C270.868 36.046 271.032 35.466 271.032 34.754C271.032 34.022 270.866 33.44 270.534 33.008C270.202 32.572 269.704 32.354 269.04 32.354C268.588 32.354 268.216 32.456 267.924 32.66C267.632 32.864 267.414 33.146 267.27 33.506C267.126 33.866 267.054 34.282 267.054 34.754C267.054 35.482 267.222 36.066 267.558 36.506C267.894 36.946 268.388 37.166 269.04 37.166ZM273.247 38V31.52H274.201V33.086L274.045 32.882C274.121 32.682 274.219 32.498 274.339 32.33C274.463 32.162 274.601 32.024 274.753 31.916C274.921 31.78 275.111 31.676 275.323 31.604C275.535 31.532 275.751 31.49 275.971 31.478C276.191 31.462 276.397 31.476 276.589 31.52V32.522C276.365 32.462 276.119 32.446 275.851 32.474C275.583 32.502 275.335 32.6 275.107 32.768C274.899 32.916 274.737 33.096 274.621 33.308C274.509 33.52 274.431 33.75 274.387 33.998C274.343 34.242 274.321 34.492 274.321 34.748V38H273.247ZM278.266 40.88L279.52 37.472L279.538 38.48L276.706 31.52H277.828L280.048 37.118H279.664L281.746 31.52H282.832L279.304 40.88H278.266Z" fill="#757575"/>
</g>
<g opacity="0.8">
<path fill-rule="evenodd" clip-rule="evenodd" d="M336.745 8.12013C336.745 6.30036 338.22 4.82513 340.04 4.82513C341.86 4.82513 343.335 6.30036 343.335 8.12013C343.335 9.93991 341.86 11.4151 340.04 11.4151C338.22 11.4151 336.745 9.93991 336.745 8.12013ZM340.04 3.57513C337.53 3.57513 335.495 5.61 335.495 8.12013C335.495 10.6303 337.53 12.6651 340.04 12.6651C342.55 12.6651 344.585 10.6303 344.585 8.12013C344.585 5.61 342.55 3.57513 340.04 3.57513ZM336.904 15.3352C333.961 15.3352 331.575 17.721 331.575 20.6642C331.575 22.7413 333.259 24.4252 335.336 24.4252H344.744C346.821 24.4252 348.505 22.7413 348.505 20.6642C348.505 17.721 346.119 15.3352 343.176 15.3352H336.904ZM332.825 20.6642C332.825 18.4114 334.651 16.5852 336.904 16.5852H343.176C345.429 16.5852 347.255 18.4114 347.255 20.6642C347.255 22.051 346.131 23.1752 344.744 23.1752H335.336C333.949 23.1752 332.825 22.051 332.825 20.6642Z" fill="#767676"/>
<path d="M323.665 38V29.36H327.079C327.163 29.36 327.263 29.364 327.379 29.372C327.495 29.376 327.607 29.388 327.715 29.408C328.183 29.48 328.575 29.64 328.891 29.888C329.211 30.136 329.451 30.45 329.611 30.83C329.771 31.206 329.851 31.624 329.851 32.084C329.851 32.54 329.769 32.958 329.605 33.338C329.445 33.714 329.205 34.028 328.885 34.28C328.569 34.528 328.179 34.688 327.715 34.76C327.607 34.776 327.495 34.788 327.379 34.796C327.263 34.804 327.163 34.808 327.079 34.808H324.733V38H323.665ZM324.733 33.794H327.043C327.119 33.794 327.205 33.79 327.301 33.782C327.401 33.774 327.495 33.76 327.583 33.74C327.859 33.676 328.083 33.56 328.255 33.392C328.431 33.22 328.559 33.02 328.639 32.792C328.719 32.56 328.759 32.324 328.759 32.084C328.759 31.844 328.719 31.61 328.639 31.382C328.559 31.15 328.431 30.948 328.255 30.776C328.083 30.604 327.859 30.488 327.583 30.428C327.495 30.404 327.401 30.39 327.301 30.386C327.205 30.378 327.119 30.374 327.043 30.374H324.733V33.794ZM330.807 38V31.52H331.761V33.086L331.605 32.882C331.681 32.682 331.779 32.498 331.899 32.33C332.023 32.162 332.161 32.024 332.313 31.916C332.481 31.78 332.671 31.676 332.883 31.604C333.095 31.532 333.311 31.49 333.531 31.478C333.751 31.462 333.957 31.476 334.149 31.52V32.522C333.925 32.462 333.679 32.446 333.411 32.474C333.143 32.502 332.895 32.6 332.667 32.768C332.459 32.916 332.297 33.096 332.181 33.308C332.069 33.52 331.991 33.75 331.947 33.998C331.903 34.242 331.881 34.492 331.881 34.748V38H330.807ZM337.687 38.18C337.043 38.18 336.487 38.034 336.019 37.742C335.555 37.45 335.197 37.046 334.945 36.53C334.693 36.014 334.567 35.422 334.567 34.754C334.567 34.074 334.695 33.478 334.951 32.966C335.207 32.454 335.569 32.056 336.037 31.772C336.505 31.484 337.055 31.34 337.687 31.34C338.335 31.34 338.893 31.486 339.361 31.778C339.829 32.066 340.187 32.468 340.435 32.984C340.687 33.496 340.813 34.086 340.813 34.754C340.813 35.43 340.687 36.026 340.435 36.542C340.183 37.054 339.823 37.456 339.355 37.748C338.887 38.036 338.331 38.18 337.687 38.18ZM337.687 37.166C338.359 37.166 338.859 36.942 339.187 36.494C339.515 36.046 339.679 35.466 339.679 34.754C339.679 34.022 339.513 33.44 339.181 33.008C338.849 32.572 338.351 32.354 337.687 32.354C337.235 32.354 336.863 32.456 336.571 32.66C336.279 32.864 336.061 33.146 335.917 33.506C335.773 33.866 335.701 34.282 335.701 34.754C335.701 35.482 335.869 36.066 336.205 36.506C336.541 36.946 337.035 37.166 337.687 37.166ZM342.512 38V31.166C342.512 30.998 342.52 30.828 342.536 30.656C342.552 30.48 342.588 30.31 342.644 30.146C342.7 29.978 342.792 29.824 342.92 29.684C343.068 29.52 343.23 29.404 343.406 29.336C343.582 29.264 343.76 29.22 343.94 29.204C344.124 29.188 344.298 29.18 344.462 29.18H345.284V30.068H344.522C344.206 30.068 343.97 30.146 343.814 30.302C343.658 30.454 343.58 30.686 343.58 30.998V38H342.512ZM341.414 32.402V31.52H345.284V32.402H341.414ZM346.544 30.374V29.27H347.612V30.374H346.544ZM346.544 38V31.52H347.612V38H346.544ZM349.297 38V29.18H350.365V38H349.297ZM354.734 38.18C354.098 38.18 353.542 38.04 353.066 37.76C352.594 37.476 352.226 37.082 351.962 36.578C351.698 36.07 351.566 35.478 351.566 34.802C351.566 34.094 351.696 33.482 351.956 32.966C352.216 32.446 352.578 32.046 353.042 31.766C353.51 31.482 354.058 31.34 354.686 31.34C355.338 31.34 355.892 31.49 356.348 31.79C356.808 32.09 357.152 32.518 357.38 33.074C357.612 33.63 357.712 34.292 357.68 35.06H356.6V34.676C356.588 33.88 356.426 33.286 356.114 32.894C355.802 32.498 355.338 32.3 354.722 32.3C354.062 32.3 353.56 32.512 353.216 32.936C352.872 33.36 352.7 33.968 352.7 34.76C352.7 35.524 352.872 36.116 353.216 36.536C353.56 36.956 354.05 37.166 354.686 37.166C355.114 37.166 355.486 37.068 355.802 36.872C356.118 36.676 356.366 36.394 356.546 36.026L357.572 36.38C357.32 36.952 356.94 37.396 356.432 37.712C355.928 38.024 355.362 38.18 354.734 38.18ZM352.34 35.06V34.202H357.128V35.06H352.34Z" fill="#757575"/>
</g>
</svg>
