<svg width="30" height="30" viewBox="0 0 30 30" fill="none" xmlns="http://www.w3.org/2000/svg">
<path d="M24 24V9.75L17.25 3H9C8.20435 3 7.44129 3.31607 6.87868 3.87868C6.31607 4.44129 6 5.20435 6 6V24C6 24.7956 6.31607 25.5587 6.87868 26.1213C7.44129 26.6839 8.20435 27 9 27H21C21.7956 27 22.5587 26.6839 23.1213 26.1213C23.6839 25.5587 24 24.7956 24 24ZM17.25 7.5C17.25 8.09674 17.4871 8.66903 17.909 9.09099C18.331 9.51295 18.9033 9.75 19.5 9.75H22.5V24C22.5 24.3978 22.342 24.7794 22.0607 25.0607C21.7794 25.342 21.3978 25.5 21 25.5H9C8.60218 25.5 8.22064 25.342 7.93934 25.0607C7.65804 24.7794 7.5 24.3978 7.5 24V6C7.5 5.60218 7.65804 5.22064 7.93934 4.93934C8.22064 4.65804 8.60218 4.5 9 4.5H17.25V7.5Z" fill="#EC221F"/>
<path d="M9.9045 24.1306C9.61214 24.0137 9.37659 23.7878 9.2475 23.5006C8.955 22.9186 9.0525 22.3366 9.3675 21.8476C9.6645 21.3871 10.1565 20.9956 10.713 20.6671C11.4179 20.2673 12.163 19.943 12.936 19.6996C13.5363 18.6205 14.0683 17.5048 14.529 16.3591C14.2536 15.7333 14.0376 15.0829 13.884 14.4166C13.755 13.8166 13.7055 13.2226 13.815 12.7126C13.9275 12.1816 14.226 11.7046 14.79 11.4781C15.078 11.3626 15.39 11.2981 15.693 11.3626C15.8454 11.3951 15.9887 11.461 16.1125 11.5557C16.2362 11.6504 16.3373 11.7715 16.4085 11.9101C16.5405 12.1561 16.5885 12.4441 16.599 12.7171C16.6095 12.9991 16.581 13.3111 16.5285 13.6381C16.4025 14.4031 16.1235 15.3391 15.7485 16.3291C16.1623 17.2141 16.6543 18.0605 17.2185 18.8581C17.8862 18.8054 18.5577 18.8305 19.2195 18.9331C19.7655 19.0321 20.3205 19.2256 20.6595 19.6306C20.8395 19.8466 20.949 20.1106 20.9595 20.4076C20.97 20.6956 20.889 20.9806 20.7525 21.2521C20.6343 21.5037 20.4509 21.7191 20.2215 21.8761C19.9947 22.024 19.727 22.0965 19.4565 22.0831C18.96 22.0621 18.4755 21.7891 18.057 21.4576C17.5481 21.0369 17.0896 20.5587 16.6905 20.0326C15.6761 20.1477 14.6738 20.3515 13.695 20.6416C13.2468 21.4365 12.7351 22.194 12.165 22.9066C11.727 23.4316 11.2515 23.8906 10.7745 24.0871C10.5004 24.2111 10.1896 24.2266 9.9045 24.1306ZM11.973 21.2791C11.724 21.3931 11.493 21.5131 11.2845 21.6361C10.7925 21.9271 10.473 22.2106 10.314 22.4566C10.173 22.6741 10.17 22.8316 10.254 22.9981C10.269 23.0311 10.284 23.0521 10.293 23.0641C10.3109 23.0593 10.3284 23.0533 10.3455 23.0461C10.551 22.9621 10.878 22.6936 11.298 22.1881C11.5369 21.8957 11.7621 21.5923 11.973 21.2791ZM14.433 19.2841C14.9339 19.1672 15.4393 19.0706 15.948 18.9946C15.6749 18.5766 15.4197 18.1473 15.183 17.7076C14.9477 18.2395 14.6976 18.7647 14.433 19.2826V19.2841ZM18.102 19.9591C18.327 20.2036 18.546 20.4091 18.7545 20.5741C19.1145 20.8591 19.365 20.9536 19.5015 20.9581C19.5381 20.9629 19.5751 20.9549 19.6065 20.9356C19.6689 20.8863 19.7175 20.8217 19.7475 20.7481C19.8008 20.6567 19.8312 20.5538 19.836 20.4481C19.8351 20.4129 19.8212 20.3792 19.797 20.3536C19.719 20.2606 19.497 20.1256 19.02 20.0401C18.7166 19.9894 18.4096 19.9628 18.102 19.9606V19.9591ZM15.117 14.7001C15.2432 14.2929 15.3434 13.8781 15.417 13.4581C15.4635 13.1761 15.4815 12.9436 15.474 12.7606C15.4744 12.6596 15.4582 12.5593 15.426 12.4636C15.351 12.4729 15.2777 12.4931 15.2085 12.5236C15.078 12.5761 14.9715 12.6826 14.9145 12.9481C14.8545 13.2361 14.8695 13.6516 14.9835 14.1811C15.0195 14.3476 15.0645 14.5216 15.1185 14.7001H15.117Z" fill="#EC221F"/>
</svg>
