<svg width="24" height="24" viewBox="0 0 24 24" fill="none" xmlns="http://www.w3.org/2000/svg">
<path fill-rule="evenodd" clip-rule="evenodd" d="M2.45777 5.12039C2 6.01882 2 7.19493 2 9.54715V11.2272V18.2271V18.2272V20.9062C2 21.4675 2.6786 21.7486 3.07548 21.3517L6.2 18.2272L6.20001 18.2271H16.28C18.6322 18.2271 19.8083 18.2271 20.7068 17.7694C21.497 17.3667 22.1396 16.7242 22.5422 15.9339C23 15.0355 23 13.8594 23 11.5071V9.54715C23 7.19493 23 6.01882 22.5422 5.12039C22.1396 4.33011 21.497 3.68759 20.7068 3.28492C19.8083 2.82715 18.6322 2.82715 16.28 2.82715H8.72C6.36778 2.82715 5.19167 2.82715 4.29324 3.28492C3.50296 3.68759 2.86044 4.33011 2.45777 5.12039ZM6.89998 8.42719C6.89998 8.04059 7.21338 7.72719 7.59998 7.72719H17.4C17.7866 7.72719 18.1 8.04059 18.1 8.42719C18.1 8.81378 17.7866 9.12718 17.4 9.12718H7.59998C7.21338 9.12718 6.89998 8.81378 6.89998 8.42719ZM7.59998 11.9271C7.21338 11.9271 6.89998 12.2405 6.89998 12.6271C6.89998 13.0137 7.21338 13.3271 7.59998 13.3271H14.6C14.9866 13.3271 15.3 13.0137 15.3 12.6271C15.3 12.2405 14.9866 11.9271 14.6 11.9271H7.59998Z" fill="#C62B6D"/>
</svg>
