<svg width="24" height="24" viewBox="0 0 24 24" fill="none" xmlns="http://www.w3.org/2000/svg">
<path fill-rule="evenodd" clip-rule="evenodd" d="M4.32461 8.40891C4 9.11468 4 9.91761 4 11.5235V16.5386C4 18.7688 4 19.8839 4.69282 20.5767C5.37428 21.2582 6.46427 21.2693 8.62208 21.2695V15.3562C8.62208 14.3164 9.465 13.4735 10.5048 13.4735H14.053C15.0928 13.4735 15.9357 14.3164 15.9357 15.3562V21.2695C18.0937 21.2693 19.1838 21.2582 19.8653 20.5767C20.5581 19.8839 20.5581 18.7688 20.5581 16.5386V11.5235C20.5581 9.91761 20.5581 9.11468 20.2335 8.40891C19.9089 7.70313 19.2992 7.1806 18.08 6.13552L16.8973 5.12176C14.6935 3.23281 13.5916 2.28833 12.279 2.28833C10.9665 2.28833 9.8646 3.23281 7.66082 5.12176L6.4781 6.13552C5.25885 7.1806 4.64922 7.70313 4.32461 8.40891ZM14.5357 21.2695V15.3562C14.5357 15.0896 14.3196 14.8735 14.053 14.8735H10.5048C10.2382 14.8735 10.0221 15.0896 10.0221 15.3562V21.2695H14.5357Z" fill="#C62B6D"/>
</svg>
