<svg width="24" height="24" viewBox="0 0 24 24" fill="none" xmlns="http://www.w3.org/2000/svg">
<path fill-rule="evenodd" clip-rule="evenodd" d="M8.24485 6.1202C8.24485 4.30042 9.72007 2.8252 11.5398 2.8252C13.3596 2.8252 14.8348 4.30042 14.8348 6.1202C14.8348 7.93997 13.3596 9.41519 11.5398 9.41519C9.72007 9.41519 8.24485 7.93997 8.24485 6.1202ZM11.5398 1.5752C9.02971 1.5752 6.99485 3.61006 6.99485 6.1202C6.99485 8.63033 9.02971 10.6652 11.5398 10.6652C14.05 10.6652 16.0848 8.63033 16.0848 6.1202C16.0848 3.61006 14.05 1.5752 11.5398 1.5752ZM8.40395 13.3352C5.46082 13.3352 3.07495 15.7211 3.07495 18.6642C3.07495 20.7414 4.75881 22.4252 6.83595 22.4252H16.244C18.3211 22.4252 20.005 20.7414 20.005 18.6642C20.005 15.7211 17.6191 13.3352 14.676 13.3352H8.40395ZM4.32495 18.6642C4.32495 16.4115 6.15118 14.5852 8.40395 14.5852H14.676C16.9287 14.5852 18.755 16.4115 18.755 18.6642C18.755 20.051 17.6307 21.1752 16.244 21.1752H6.83595C5.44916 21.1752 4.32495 20.051 4.32495 18.6642Z" fill="#767676"/>
</svg>
