<svg width="20" height="20" viewBox="0 0 20 20" fill="none" xmlns="http://www.w3.org/2000/svg">
<path d="M3.25 2.125C2.95163 2.125 2.66548 2.24353 2.4545 2.4545C2.24353 2.66548 2.125 2.95163 2.125 3.25V16.75C2.125 17.0484 2.24353 17.3345 2.4545 17.5455C2.66548 17.7565 2.95163 17.875 3.25 17.875H16.75C17.0484 17.875 17.3345 17.7565 17.5455 17.5455C17.7565 17.3345 17.875 17.0484 17.875 16.75V3.25C17.875 2.95163 17.7565 2.66548 17.5455 2.4545C17.3345 2.24353 17.0484 2.125 16.75 2.125H11.6875C11.3891 2.125 11.103 2.24353 10.892 2.4545C10.681 2.66548 10.5625 2.95163 10.5625 3.25V11.4546L13.5392 8.47675C13.6449 8.37113 13.7881 8.31179 13.9375 8.31179C14.0869 8.31179 14.2301 8.37113 14.3358 8.47675C14.4414 8.58237 14.5007 8.72563 14.5007 8.875C14.5007 9.02437 14.4414 9.16763 14.3358 9.27325L10.3983 13.2108C10.346 13.2631 10.2839 13.3047 10.2156 13.3331C10.1472 13.3614 10.074 13.376 10 13.376C9.92601 13.376 9.85275 13.3614 9.78441 13.3331C9.71607 13.3047 9.654 13.2631 9.60175 13.2108L5.66425 9.27325C5.61195 9.22095 5.57047 9.15886 5.54216 9.09053C5.51386 9.0222 5.49929 8.94896 5.49929 8.875C5.49929 8.80104 5.51386 8.7278 5.54216 8.65947C5.57047 8.59114 5.61195 8.52905 5.66425 8.47675C5.71655 8.42445 5.77864 8.38297 5.84697 8.35466C5.9153 8.32636 5.98854 8.31179 6.0625 8.31179C6.13646 8.31179 6.2097 8.32636 6.27803 8.35466C6.34636 8.38297 6.40845 8.42445 6.46075 8.47675L9.4375 11.4546V3.25C9.4375 2.65326 9.67455 2.08097 10.0965 1.65901C10.5185 1.23705 11.0908 1 11.6875 1L16.75 1C17.3467 1 17.919 1.23705 18.341 1.65901C18.7629 2.08097 19 2.65326 19 3.25V16.75C19 17.3467 18.7629 17.919 18.341 18.341C17.919 18.7629 17.3467 19 16.75 19H3.25C2.65326 19 2.08097 18.7629 1.65901 18.341C1.23705 17.919 1 17.3467 1 16.75V3.25C1 2.65326 1.23705 2.08097 1.65901 1.65901C2.08097 1.23705 2.65326 1 3.25 1L6.0625 1C6.21168 1 6.35476 1.05926 6.46025 1.16475C6.56574 1.27024 6.625 1.41332 6.625 1.5625C6.625 1.71168 6.56574 1.85476 6.46025 1.96025C6.35476 2.06574 6.21168 2.125 6.0625 2.125H3.25Z" fill="white"/>
</svg>
