<svg width="66" height="66" viewBox="0 0 66 66" fill="none" xmlns="http://www.w3.org/2000/svg">
<g filter="url(#filter0_dddd_1074_4761)">
<rect x="5" y="4" width="56" height="56" rx="4" fill="url(#paint0_linear_1074_4761)" shape-rendering="crispEdges"/>
<rect x="5.75" y="4.75" width="54.5" height="54.5" rx="3.25" stroke="url(#paint1_linear_1074_4761)" stroke-width="1.5" shape-rendering="crispEdges"/>
<path d="M33.0001 48C41.8366 48 49.0001 40.8366 49.0001 32C49.0001 23.1634 41.8366 16 33.0001 16C24.1635 16 17.0001 23.1634 17.0001 32C17.0001 40.8366 24.1635 48 33.0001 48Z" fill="url(#paint2_linear_1074_4761)"/>
<path fill-rule="evenodd" clip-rule="evenodd" d="M24.2428 31.8309C28.9072 29.7988 32.0175 28.459 33.5737 27.8117C38.0171 25.9636 38.9404 25.6426 39.5421 25.6319C39.6745 25.6296 39.9704 25.6624 40.1621 25.818C40.324 25.9493 40.3685 26.1267 40.3899 26.2513C40.4112 26.3758 40.4377 26.6595 40.4166 26.8811C40.1758 29.4111 39.1339 35.5507 38.6039 38.3843C38.3796 39.5833 37.938 39.9854 37.5104 40.0247C36.5813 40.1102 35.8757 39.4107 34.9758 38.8207C33.5676 37.8976 32.7721 37.323 31.4051 36.4222C29.8254 35.3812 30.8495 34.8091 31.7498 33.874C31.9854 33.6293 36.0792 29.9056 36.1585 29.5678C36.1684 29.5256 36.1776 29.3681 36.084 29.285C35.9905 29.2018 35.8524 29.2303 35.7527 29.2529C35.6115 29.2849 33.3619 30.7718 29.0038 33.7136C28.3653 34.1521 27.7869 34.3658 27.2687 34.3546C26.6974 34.3422 25.5985 34.0315 24.7816 33.766C23.7796 33.4403 22.9832 33.2681 23.0525 32.7149C23.0887 32.4268 23.4854 32.1321 24.2428 31.8309Z" fill="white"/>
</g>
<defs>
<filter id="filter0_dddd_1074_4761" x="0.502959" y="0.402367" width="64.9941" height="64.9941" filterUnits="userSpaceOnUse" color-interpolation-filters="sRGB">
<feFlood flood-opacity="0" result="BackgroundImageFix"/>
<feColorMatrix in="SourceAlpha" type="matrix" values="0 0 0 0 0 0 0 0 0 0 0 0 0 0 0 0 0 0 127 0" result="hardAlpha"/>
<feMorphology radius="0.899408" operator="dilate" in="SourceAlpha" result="effect1_dropShadow_1074_4761"/>
<feOffset dy="0.899408"/>
<feGaussianBlur stdDeviation="1.79882"/>
<feComposite in2="hardAlpha" operator="out"/>
<feColorMatrix type="matrix" values="0 0 0 0 0 0 0 0 0 0 0 0 0 0 0 0 0 0 0.12 0"/>
<feBlend mode="normal" in2="BackgroundImageFix" result="effect1_dropShadow_1074_4761"/>
<feColorMatrix in="SourceAlpha" type="matrix" values="0 0 0 0 0 0 0 0 0 0 0 0 0 0 0 0 0 0 127 0" result="hardAlpha"/>
<feMorphology radius="1.34911" operator="erode" in="SourceAlpha" result="effect2_dropShadow_1074_4761"/>
<feOffset dy="2.69822"/>
<feGaussianBlur stdDeviation="1.46154"/>
<feComposite in2="hardAlpha" operator="out"/>
<feColorMatrix type="matrix" values="0 0 0 0 0 0 0 0 0 0 0 0 0 0 0 0 0 0 0.25 0"/>
<feBlend mode="normal" in2="effect1_dropShadow_1074_4761" result="effect2_dropShadow_1074_4761"/>
<feColorMatrix in="SourceAlpha" type="matrix" values="0 0 0 0 0 0 0 0 0 0 0 0 0 0 0 0 0 0 127 0" result="hardAlpha"/>
<feMorphology radius="0.674556" operator="dilate" in="SourceAlpha" result="effect3_dropShadow_1074_4761"/>
<feOffset/>
<feGaussianBlur stdDeviation="0.112426"/>
<feComposite in2="hardAlpha" operator="out"/>
<feColorMatrix type="matrix" values="0 0 0 0 0 0 0 0 0 0 0 0 0 0 0 0 0 0 0.05 0"/>
<feBlend mode="normal" in2="effect2_dropShadow_1074_4761" result="effect3_dropShadow_1074_4761"/>
<feColorMatrix in="SourceAlpha" type="matrix" values="0 0 0 0 0 0 0 0 0 0 0 0 0 0 0 0 0 0 127 0" result="hardAlpha"/>
<feMorphology radius="0.224852" operator="dilate" in="SourceAlpha" result="effect4_dropShadow_1074_4761"/>
<feOffset/>
<feGaussianBlur stdDeviation="0.112426"/>
<feComposite in2="hardAlpha" operator="out"/>
<feColorMatrix type="matrix" values="0 0 0 0 0 0 0 0 0 0 0 0 0 0 0 0 0 0 0.07 0"/>
<feBlend mode="normal" in2="effect3_dropShadow_1074_4761" result="effect4_dropShadow_1074_4761"/>
<feBlend mode="normal" in="SourceGraphic" in2="effect4_dropShadow_1074_4761" result="shape"/>
</filter>
<linearGradient id="paint0_linear_1074_4761" x1="33" y1="4" x2="33" y2="60" gradientUnits="userSpaceOnUse">
<stop stop-color="#F4F4F4"/>
<stop offset="1" stop-color="#FEFEFE"/>
</linearGradient>
<linearGradient id="paint1_linear_1074_4761" x1="33" y1="4" x2="33" y2="60" gradientUnits="userSpaceOnUse">
<stop stop-color="white"/>
<stop offset="1" stop-color="#ECECEC"/>
</linearGradient>
<linearGradient id="paint2_linear_1074_4761" x1="1617" y1="16" x2="1617" y2="3192.27" gradientUnits="userSpaceOnUse">
<stop stop-color="#2AABEE"/>
<stop offset="1" stop-color="#229ED9"/>
</linearGradient>
</defs>
</svg>
