<svg width="39" height="39" viewBox="0 0 39 39" fill="none" xmlns="http://www.w3.org/2000/svg">
<path d="M28.7502 29.1013C32.2322 28.7556 34.9517 25.8177 34.9517 22.2447C34.9517 18.1007 31.1459 14.8411 27.0754 15.4241C27.0688 15.425 27.0622 15.4216 27.0592 15.4157C25.5024 12.3145 22.293 10.1861 18.5865 10.1861C13.649 10.1861 9.59361 13.963 9.15183 18.7853C9.1511 18.7933 9.14429 18.7995 9.13625 18.7995C6.31151 18.7971 3.94397 21.1327 3.94397 23.9673C3.94397 26.8215 6.25774 29.1353 9.11193 29.1353H10.1455" stroke="white" stroke-width="2.32558" stroke-linecap="round"/>
<path d="M15.5719 26.465L18.8997 23.1372C19.2024 22.8345 19.6933 22.8345 19.996 23.1372L23.3238 26.465" stroke="white" stroke-width="2.32558" stroke-linecap="round"/>
<path d="M19.4478 24.1395L19.4478 33.4418" stroke="white" stroke-width="2.32558" stroke-linecap="round"/>
</svg>
