<svg width="50" height="50" viewBox="0 0 50 50" fill="none" xmlns="http://www.w3.org/2000/svg">
<circle cx="24.9999" cy="25.0002" r="23.8715" stroke="#334998" stroke-width="1.90972"/>
<g filter="url(#filter0_i_4_92)">
<circle cx="24.9999" cy="25.0002" r="22.9167" fill="#334998"/>
</g>
<path d="M26.2499 26.2501V36.2501M26.2499 26.2501L21.2499 31.2501M26.2499 26.2501L31.2499 31.2501M16.2499 28.6238C15.3212 27.675 14.6206 26.5272 14.2012 25.2675C13.7818 24.0078 13.6546 22.6691 13.8291 21.353C14.0037 20.0368 14.4755 18.7776 15.2088 17.6708C15.9421 16.5639 16.9177 15.6385 18.0616 14.9645C19.2055 14.2906 20.4878 13.8858 21.8114 13.7808C23.1349 13.6758 24.465 13.8734 25.7009 14.3587C26.9368 14.8439 28.046 15.604 28.9446 16.5814C29.8432 17.5588 30.5076 18.7279 30.8874 20.0001H33.1249C34.3318 19.9999 35.5068 20.388 36.4762 21.1069C37.4456 21.8258 38.1581 22.8374 38.5084 23.9923C38.8587 25.1473 38.8283 26.3843 38.4216 27.5206C38.0149 28.6569 37.2535 29.6322 36.2499 30.3026" stroke="#F3F3F3" stroke-width="1.875" stroke-linecap="round" stroke-linejoin="round"/>
<defs>
<filter id="filter0_i_4_92" x="2.08325" y="2.0835" width="45.8333" height="47.743" filterUnits="userSpaceOnUse" color-interpolation-filters="sRGB">
<feFlood flood-opacity="0" result="BackgroundImageFix"/>
<feBlend mode="normal" in="SourceGraphic" in2="BackgroundImageFix" result="shape"/>
<feColorMatrix in="SourceAlpha" type="matrix" values="0 0 0 0 0 0 0 0 0 0 0 0 0 0 0 0 0 0 127 0" result="hardAlpha"/>
<feOffset dy="1.90972"/>
<feGaussianBlur stdDeviation="1.875"/>
<feComposite in2="hardAlpha" operator="arithmetic" k2="-1" k3="1"/>
<feColorMatrix type="matrix" values="0 0 0 0 1 0 0 0 0 1 0 0 0 0 1 0 0 0 0.53 0"/>
<feBlend mode="normal" in2="shape" result="effect1_innerShadow_4_92"/>
</filter>
</defs>
</svg>
